<?xml version="1.0" standalone="no"?>
<!DOCTYPE svg PUBLIC "-//W3C//DTD SVG 1.1//EN" "http://www.w3.org/Graphics/SVG/1.1/DTD/svg11.dtd" >
<svg xmlns="http://www.w3.org/2000/svg">
<metadata>Generated by IcoMoon</metadata>
<defs>
<font id="elements" horiz-adv-x="1024">
<font-face units-per-em="1024" ascent="960" descent="-64" />
<missing-glyph horiz-adv-x="1024" />
<glyph unicode="&#x20;" horiz-adv-x="512" d="" />
<glyph unicode="&#xe900;" glyph-name="access-control" d="M697.937 442.611c-18.863 18.863-45.811 29.642-72.758 29.642v0h-61.979c-13.474 107.789-102.4 191.326-212.884 191.326v0c-56.589 0-110.484-21.558-153.6-61.979-40.421-43.116-61.979-97.011-61.979-153.6 0-118.568 97.011-215.579 215.579-215.579v0c56.589 0 110.484 21.558 153.6 61.979 35.032 35.032 53.895 78.147 61.979 123.958h61.979c10.779 0 24.253-5.389 32.337-13.474 8.084-10.779 13.474-21.558 13.474-37.726v-40.421c0-16.168 13.474-26.947 26.947-26.947v0c16.168 0 26.947 13.474 26.947 26.947v40.421c0 29.642-10.779 56.589-29.642 75.453zM463.495 334.821c-29.642-32.337-70.063-48.505-113.179-48.505v0c-88.926 0-161.684 72.758-161.684 161.684 0 43.116 16.168 83.537 48.505 113.179 29.642 32.337 70.063 48.505 113.179 48.505v0c88.926 0 161.684-72.758 161.684-161.684 0-43.116-16.168-83.537-48.505-113.179zM889.263 369.853c0 26.947-10.779 53.895-29.642 72.758s-45.811 29.642-72.758 29.642v0c-16.168 0-26.947-13.474-26.947-26.947s13.474-26.947 26.947-26.947v0c13.474 0 24.253-5.389 32.337-13.474 8.084-10.779 13.474-21.558 13.474-37.726v-40.421c0-16.168 13.474-26.947 26.947-26.947v0c16.168 0 26.947 13.474 26.947 26.947l2.695 43.116z" />
<glyph unicode="&#xe901;" glyph-name="action" d="M485.053 294.4c0-16.168 10.779-26.947 26.947-26.947s26.947 10.779 26.947 26.947v153.6c0 2.695 0 8.084-2.695 10.779-2.695 5.389-8.084 10.779-13.474 13.474-2.695 2.695-5.389 2.695-10.779 2.695h-156.295c-16.168 0-26.947-10.779-26.947-26.947s10.779-26.947 26.947-26.947h88.926l-301.811-304.505c-10.779-10.779-10.779-26.947 0-37.726 5.389-5.389 10.779-8.084 18.863-8.084s13.474 2.695 18.863 8.084l304.505 304.505v-88.926zM778.779 714.779c-145.516 145.516-385.347 145.516-533.558-2.695-88.926-88.926-129.347-215.579-105.095-336.842 2.695-13.474 16.168-24.253 32.337-21.558 13.474 2.695 24.253 16.168 21.558 32.337-18.863 105.095 13.474 212.884 88.926 288.337 126.653 126.653 331.453 126.653 458.105 2.695 59.284-59.284 94.316-140.126 94.316-226.358s-35.032-167.074-94.316-229.053c-75.453-75.453-185.937-110.484-291.032-88.926-13.474 2.695-29.642-8.084-32.337-21.558s8.084-29.642 21.558-32.337c24.253-5.389 45.811-5.389 70.063-5.389 99.705 0 196.716 40.421 269.474 110.484 72.758 72.758 110.484 167.074 110.484 266.779s-37.726 194.021-110.484 264.084zM538.947 555.789v53.895c0 16.168-10.779 26.947-26.947 26.947s-26.947-10.779-26.947-26.947v-53.895c0-16.168 10.779-26.947 26.947-26.947s26.947 10.779 26.947 26.947zM619.789 593.516l-37.726-37.726c-10.779-10.779-10.779-26.947 0-37.726 5.389-5.389 13.474-8.084 18.863-8.084s13.474 2.695 18.863 8.084l37.726 37.726c10.779 10.779 10.779 26.947 0 37.726s-26.947 10.779-37.726 0zM592.842 448c0-16.168 10.779-26.947 26.947-26.947h53.895c16.168 0 26.947 10.779 26.947 26.947s-10.779 26.947-26.947 26.947h-53.895c-16.168 0-26.947-10.779-26.947-26.947z" />
<glyph unicode="&#xe902;" glyph-name="agreement" d="M512 200.084c-13.474 0-24.253 2.695-37.726 8.084l-223.663 113.179c-13.474 5.389-18.863 21.558-13.474 32.337l91.621 242.526-75.453 26.947-64.674-172.463 13.474-5.389c13.474-5.389 21.558-21.558 16.168-35.032s-21.558-21.558-35.032-16.168l-13.474 5.389c-13.474 5.389-24.253 13.474-29.642 26.947s-8.084 26.947-2.695 40.421l64.674 177.853c10.779 26.947 40.421 43.116 70.063 32.337l75.453-26.947c13.474-5.389 24.253-13.474 29.642-26.947s8.084-26.947 2.695-40.421l-83.537-220.968 202.105-102.4c24.253-13.474 70.063 24.253 86.232 40.421s40.421 64.674 43.116 75.453c0 16.168-2.695 18.863-13.474 26.947-13.474 8.084-16.168 24.253-8.084 37.726s24.253 16.168 37.726 8.084c35.032-21.558 37.726-51.2 37.726-75.453s-32.337-88.926-56.589-110.484c-8.084-8.084-59.284-61.979-113.179-61.979zM759.916 383.326c-8.084 0-16.168 2.695-21.558 5.389-13.474 5.389-24.253 16.168-26.947 29.642 0 0-72.758 202.105-75.453 207.495s-10.779 8.084-16.168 5.389l-137.432-64.674c-5.389-2.695-8.084-8.084-8.084-13.474 0-8.084 5.389-13.474 13.474-13.474 5.389 0 24.253 5.389 37.726 13.474 10.779 5.389 21.558 2.695 29.642-5.389l2.695-2.695c8.084-10.779 16.168-16.168 37.726-10.779 13.474 2.695 29.642-5.389 32.337-18.863s-5.389-29.642-18.863-32.337c-40.421-10.779-67.368 2.695-80.842 16.168-13.474-5.389-32.337-10.779-43.116-10.779-37.726 0-67.368 29.642-67.368 67.368 0 26.947 16.168 48.505 37.726 61.979l132.042 61.979c2.695 2.695 5.389 2.695 10.779 5.389 0 0 0 0 2.695 0 8.084 2.695 13.474 2.695 21.558 2.695 26.947 0 51.2-16.168 61.979-40.421 0 0 0-2.695 75.453-210.189l75.453 26.947-64.674 177.853-13.474-5.389c-13.474-5.389-29.642 2.695-35.032 16.168s2.695 29.642 16.168 35.032l13.474 5.389c13.474 5.389 26.947 5.389 40.421-2.695 13.474-5.389 24.253-16.168 26.947-29.642l64.674-177.853c5.389-13.474 5.389-26.947-2.695-40.421s-16.168-24.253-29.642-26.947l-75.453-26.947c-5.389-5.389-10.779-5.389-16.168-5.389z" />
<glyph unicode="&#xe903;" glyph-name="alert" d="M512 232.421c-16.168 0-26.947 10.779-26.947 26.947s10.779 26.947 26.947 26.947v0c16.168 0 26.947-10.779 26.947-26.947s-10.779-26.947-26.947-26.947zM512 318.653c-16.168 0-26.947 10.779-26.947 26.947v188.632c0 16.168 10.779 26.947 26.947 26.947v0c16.168 0 26.947-10.779 26.947-26.947v-188.632c0-13.474-10.779-26.947-26.947-26.947v0zM862.316 124.632h-700.632c-10.779 0-18.863 5.389-24.253 13.474s-5.389 18.863 0 26.947l350.316 592.842c5.389 8.084 16.168 13.474 24.253 13.474v0c10.779 0 18.863-5.389 24.253-13.474l350.316-592.842c5.389-8.084 5.389-18.863 0-26.947s-13.474-13.474-24.253-13.474zM210.189 178.526h606.316l-304.505 512-301.811-512z" />
<glyph unicode="&#xe904;" glyph-name="align-horizontal" d="M512 609.684c-80.842 0-145.516-59.284-158.989-134.737h-191.326c-16.168 0-26.947-10.779-26.947-26.947s10.779-26.947 26.947-26.947h191.326c13.474-75.453 78.147-134.737 158.989-134.737 88.926 0 161.684 72.758 161.684 161.684s-72.758 161.684-161.684 161.684zM512 340.211c-59.284 0-107.789 48.505-107.789 107.789s48.505 107.789 107.789 107.789 107.789-48.505 107.789-107.789-48.505-107.789-107.789-107.789zM862.316 474.947h-107.789c-16.168 0-26.947-10.779-26.947-26.947s10.779-26.947 26.947-26.947h107.789c16.168 0 26.947 10.779 26.947 26.947 0 13.474-10.779 26.947-26.947 26.947z" />
<glyph unicode="&#xe905;" glyph-name="align-vertical" d="M538.947 606.989v191.326c0 16.168-10.779 26.947-26.947 26.947v0c-16.168 0-26.947-10.779-26.947-26.947v-191.326c-75.453-13.474-134.737-78.147-134.737-158.989 0-88.926 72.758-161.684 161.684-161.684s161.684 72.758 161.684 161.684c0 80.842-59.284 145.516-134.737 158.989zM512 340.211c-59.284 0-107.789 48.505-107.789 107.789s48.505 107.789 107.789 107.789 107.789-48.505 107.789-107.789-48.505-107.789-107.789-107.789zM512 232.421v0c-16.168 0-26.947-10.779-26.947-26.947v-107.789c0-16.168 10.779-26.947 26.947-26.947v0c16.168 0 26.947 10.779 26.947 26.947v107.789c0 13.474-10.779 26.947-26.947 26.947z" />
<glyph unicode="&#xe906;" glyph-name="all" d="M727.579 501.895c-88.926 0-161.684 72.758-161.684 161.684s72.758 161.684 161.684 161.684 161.684-72.758 161.684-161.684-72.758-161.684-161.684-161.684zM727.579 771.368c-59.284 0-107.789-48.505-107.789-107.789s48.505-107.789 107.789-107.789 107.789 48.505 107.789 107.789-48.505 107.789-107.789 107.789zM296.421 501.895c-88.926 0-161.684 72.758-161.684 161.684s72.758 161.684 161.684 161.684 161.684-72.758 161.684-161.684-72.758-161.684-161.684-161.684zM296.421 771.368c-59.284 0-107.789-48.505-107.789-107.789s48.505-107.789 107.789-107.789 107.789 48.505 107.789 107.789-48.505 107.789-107.789 107.789zM296.421 70.737c-88.926 0-161.684 72.758-161.684 161.684s72.758 161.684 161.684 161.684 161.684-72.758 161.684-161.684-72.758-161.684-161.684-161.684zM296.421 340.211c-59.284 0-107.789-48.505-107.789-107.789s48.505-107.789 107.789-107.789 107.789 48.505 107.789 107.789-48.505 107.789-107.789 107.789zM727.579 70.737c-88.926 0-161.684 72.758-161.684 161.684s72.758 161.684 161.684 161.684 161.684-72.758 161.684-161.684-72.758-161.684-161.684-161.684zM727.579 340.211c-59.284 0-107.789-48.505-107.789-107.789s48.505-107.789 107.789-107.789 107.789 48.505 107.789 107.789-48.505 107.789-107.789 107.789z" />
<glyph unicode="&#xe907;" glyph-name="api-on" d="M881.179 124.632l-180.547 180.547c29.642 37.726 45.811 83.537 45.811 132.042 0 61.979-26.947 123.958-72.758 169.768 0 0 0 0 0 0s0 0 0 0c-86.232 83.537-220.968 94.316-309.895 24.253l-183.242 177.853c-10.779 10.779-26.947 10.779-37.726 0s-10.779-29.642 0-37.726l180.547-177.853c-29.642-37.726-45.811-83.537-45.811-132.042 0-61.979 26.947-123.958 72.758-169.768 0 0 0 0 0 0s0 0 0 0c48.505-45.811 110.484-70.063 172.463-70.063 48.505 0 99.705 16.168 137.432 45.811l180.547-177.853c5.389-5.389 10.779-8.084 18.863-8.084s13.474 2.695 18.863 8.084c13.474 8.084 13.474 26.947 2.695 35.032zM388.042 329.432c0 0 0 0 0 0s0 0 0 0c-37.726 35.032-56.589 80.842-56.589 129.347 0 43.116 16.168 86.232 48.505 115.874 67.368 67.368 183.242 61.979 253.305-8.084 0 0 0 0 0 0s0 0 0 0c37.726-35.032 56.589-80.842 56.589-129.347 0-43.116-16.168-86.232-48.505-115.874-64.674-67.368-180.547-61.979-253.305 8.084zM576.674 509.979c10.779-10.779 10.779-26.947 0-37.726l-88.926-83.537c-5.389-5.389-10.779-8.084-18.863-8.084s-13.474 2.695-18.863 8.084c-10.779 10.779-10.779 26.947 0 37.726l88.926 83.537c8.084 10.779 26.947 10.779 37.726 0z" />
<glyph unicode="&#xe908;" glyph-name="api" d="M881.179 124.632l-80.842 80.842c29.642 37.726 45.811 83.537 45.811 134.737 0 61.979-26.947 123.958-72.758 169.768-10.779 10.779-26.947 10.779-37.726 0l-48.505-45.811-80.842 78.147c-10.779 10.779-26.947 10.779-37.726 0s-10.779-26.947 0-37.726l80.842-78.147-110.484-107.789-80.842 78.147c-10.779 10.779-26.947 10.779-37.726 0s-10.779-26.947 0-37.726l80.842-78.147-48.505-48.505c-5.389-5.389-8.084-10.779-8.084-18.863s2.695-13.474 8.084-18.863c48.505-45.811 110.484-70.063 172.463-70.063 48.505 0 97.011 16.168 137.432 45.811l83.537-80.842c5.389-5.389 10.779-8.084 18.863-8.084s13.474 2.695 18.863 8.084c8.084 8.084 8.084 26.947-2.695 35.032zM509.305 213.558l45.811 45.811 150.905 145.516 45.811 45.811c24.253-32.337 37.726-70.063 37.726-110.484 0-43.116-16.168-86.232-48.505-115.874-59.284-61.979-158.989-64.674-231.747-10.779zM579.368 682.442c0 8.084-2.695 13.474-8.084 18.863-86.232 86.232-218.274 94.316-307.2 26.947l-83.537 80.842c-10.779 10.779-26.947 10.779-37.726 0s-10.779-29.642 0-37.726l80.842-80.842c-29.642-37.726-45.811-83.537-45.811-134.737 0-61.979 26.947-123.958 72.758-169.768 5.389-5.389 10.779-8.084 18.863-8.084s13.474 2.695 18.863 8.084l282.947 277.558c5.389 5.389 8.084 13.474 8.084 18.863zM272.168 445.305c-24.253 32.337-37.726 70.063-37.726 110.484 0 43.116 16.168 86.232 48.505 115.874 32.337 32.337 75.453 48.505 118.568 48.505 40.421 0 80.842-13.474 113.179-37.726l-242.526-237.137z" />
<glyph unicode="&#xe909;" glyph-name="apps" d="M808.421 340.211h-107.789c-16.168 0-26.947 10.779-26.947 26.947s10.779 26.947 26.947 26.947h107.789c16.168 0 26.947 10.779 26.947 26.947v323.368c0 16.168-10.779 26.947-26.947 26.947h-323.368c-16.168 0-26.947-10.779-26.947-26.947v-107.789c0-16.168-10.779-26.947-26.947-26.947s-26.947 10.779-26.947 26.947v107.789c0 45.811 35.032 80.842 80.842 80.842h323.368c45.811 0 80.842-35.032 80.842-80.842v-323.368c0-45.811-35.032-80.842-80.842-80.842zM538.947 555.789h-323.368c-45.811 0-80.842-35.032-80.842-80.842v-323.368c0-45.811 35.032-80.842 80.842-80.842h323.368c45.811 0 80.842 35.032 80.842 80.842v323.368c0 45.811-35.032 80.842-80.842 80.842zM565.895 474.947v-80.842h-80.842c-16.168 0-26.947 10.779-26.947 26.947v80.842h80.842c16.168 0 26.947-10.779 26.947-26.947zM538.947 124.632h-323.368c-16.168 0-26.947 10.779-26.947 26.947v323.368c0 16.168 10.779 26.947 26.947 26.947h188.632v-80.842c0-45.811 35.032-80.842 80.842-80.842h80.842v-188.632c0-16.168-10.779-26.947-26.947-26.947z" />
<glyph unicode="&#xe90a;" glyph-name="architecture" d="M609.011 213.558h-382.653c-10.779 0-21.558 5.389-24.253 16.168s-2.695 21.558 5.389 29.642l256 250.611c5.389 5.389 10.779 8.084 18.863 8.084h379.958c10.779 0 21.558-5.389 24.253-16.168 5.389-10.779 2.695-21.558-5.389-29.642l-253.305-250.611c-5.389-5.389-13.474-8.084-18.863-8.084zM291.032 267.453h304.505l199.411 196.716h-304.505l-199.411-196.716zM282.947 493.811c-80.842 0-148.211 67.368-148.211 148.211s67.368 148.211 148.211 148.211 148.211-64.674 148.211-148.211-67.368-148.211-148.211-148.211zM282.947 736.337c-51.2 0-94.316-40.421-94.316-94.316s43.116-94.316 94.316-94.316 94.316 43.116 94.316 94.316-43.116 94.316-94.316 94.316zM719.495 105.768h-215.579c-16.168 0-26.947 10.779-26.947 26.947s10.779 26.947 26.947 26.947h188.632v37.726c0 16.168 10.779 26.947 26.947 26.947s26.947-10.779 26.947-26.947v-64.674c0-16.168-13.474-26.947-26.947-26.947z" />
<glyph unicode="&#xe90b;" glyph-name="archive" d="M808.421 70.737h-592.842c-45.811 0-80.842 35.032-80.842 80.842v323.368c0 45.811 35.032 80.842 80.842 80.842h592.842c45.811 0 80.842-35.032 80.842-80.842v-323.368c0-45.811-35.032-80.842-80.842-80.842zM215.579 501.895c-16.168 0-26.947-10.779-26.947-26.947v-323.368c0-16.168 10.779-26.947 26.947-26.947h592.842c16.168 0 26.947 10.779 26.947 26.947v323.368c0 16.168-10.779 26.947-26.947 26.947h-592.842zM754.526 636.632h-485.053c-16.168 0-26.947 10.779-26.947 26.947s10.779 26.947 26.947 26.947h485.053c16.168 0 26.947-10.779 26.947-26.947s-10.779-26.947-26.947-26.947zM660.211 771.368h-296.421c-16.168 0-26.947 10.779-26.947 26.947s10.779 26.947 26.947 26.947h296.421c16.168 0 26.947-10.779 26.947-26.947s-10.779-26.947-26.947-26.947zM592.842 286.316h-161.684c-16.168 0-26.947 10.779-26.947 26.947s10.779 26.947 26.947 26.947h161.684c16.168 0 26.947-10.779 26.947-26.947s-10.779-26.947-26.947-26.947z" />
<glyph unicode="&#xe90c;" glyph-name="arrange-bring-forward" d="M538.947 340.211h-323.368c-45.811 0-80.842 35.032-80.842 80.842v323.368c0 45.811 35.032 80.842 80.842 80.842h323.368c45.811 0 80.842-35.032 80.842-80.842v-323.368c0-45.811-35.032-80.842-80.842-80.842zM215.579 771.368c-16.168 0-26.947-10.779-26.947-26.947v-323.368c0-16.168 10.779-26.947 26.947-26.947h323.368c16.168 0 26.947 10.779 26.947 26.947v323.368c0 16.168-10.779 26.947-26.947 26.947h-323.368zM714.105 501.895h-13.474c-16.168 0-26.947 10.779-26.947 26.947s10.779 26.947 26.947 26.947h13.474c16.168 0 26.947-10.779 26.947-26.947s-10.779-26.947-26.947-26.947zM724.884 70.737h-26.947c-16.168 0-26.947 10.779-26.947 26.947s10.779 26.947 26.947 26.947h26.947c16.168 0 26.947-10.779 26.947-26.947s-10.779-26.947-26.947-26.947zM584.758 70.737h-26.947c-16.168 0-26.947 10.779-26.947 26.947s10.779 26.947 26.947 26.947h26.947c16.168 0 26.947-10.779 26.947-26.947s-10.779-26.947-26.947-26.947zM835.368 78.821c-8.084 0-18.863 5.389-24.253 13.474-8.084 13.474-2.695 29.642 10.779 37.726 5.389 2.695 8.084 5.389 10.779 10.779 8.084 13.474 24.253 16.168 37.726 10.779 13.474-8.084 16.168-24.253 10.779-37.726-8.084-10.779-16.168-21.558-29.642-29.642-5.389-5.389-10.779-5.389-16.168-5.389zM450.021 84.211c-5.389 0-13.474 2.695-18.863 8.084-10.779 8.084-18.863 21.558-24.253 35.032s2.695 29.642 16.168 35.032c13.474 5.389 29.642-2.695 35.032-16.168 2.695-5.389 5.389-8.084 8.084-10.779 10.779-10.779 13.474-26.947 2.695-37.726-5.389-10.779-10.779-13.474-18.863-13.474zM862.316 208.168c-16.168 0-26.947 10.779-26.947 26.947v26.947c0 16.168 10.779 26.947 26.947 26.947s26.947-10.779 26.947-26.947v-26.947c0-16.168-10.779-26.947-26.947-26.947zM862.316 348.295c-16.168 0-26.947 10.779-26.947 26.947v26.947c0 16.168 10.779 26.947 26.947 26.947s26.947-10.779 26.947-26.947v-26.947c0-16.168-10.779-26.947-26.947-26.947zM848.842 483.032c-8.084 0-13.474 2.695-18.863 8.084-2.695 2.695-8.084 5.389-10.779 8.084-13.474 5.389-21.558 18.863-16.168 35.032 5.389 13.474 18.863 21.558 35.032 16.168 13.474-5.389 24.253-13.474 35.032-21.558 10.779-10.779 8.084-26.947-2.695-37.726-8.084-5.389-16.168-8.084-21.558-8.084zM431.158 218.947c-16.168 0-26.947 10.779-26.947 26.947v13.474c0 16.168 10.779 26.947 26.947 26.947s26.947-10.779 26.947-26.947v-13.474c0-16.168-10.779-26.947-26.947-26.947z" />
<glyph unicode="&#xe90d;" glyph-name="arrange-bring-front" d="M538.947 340.211h-323.368c-45.811 0-80.842 35.032-80.842 80.842v323.368c0 45.811 35.032 80.842 80.842 80.842h323.368c45.811 0 80.842-35.032 80.842-80.842v-323.368c0-45.811-35.032-80.842-80.842-80.842zM215.579 771.368c-16.168 0-26.947-10.779-26.947-26.947v-323.368c0-16.168 10.779-26.947 26.947-26.947h323.368c16.168 0 26.947 10.779 26.947 26.947v323.368c0 16.168-10.779 26.947-26.947 26.947h-323.368zM312.589 221.642c-8.084 0-13.474 2.695-18.863 8.084s-8.084 10.779-10.779 16.168c-8.084 13.474-2.695 29.642 10.779 37.726s29.642 2.695 37.726-10.779c0-2.695 2.695-2.695 5.389-5.389 10.779-10.779 10.779-26.947 0-37.726-10.779-5.389-18.863-8.084-24.253-8.084zM590.147 205.474h-26.947c-16.168 0-26.947 10.779-26.947 26.947s10.779 26.947 26.947 26.947h26.947c16.168 0 26.947-10.779 26.947-26.947s-13.474-26.947-26.947-26.947zM447.326 205.474h-26.947c-16.168 0-26.947 10.779-26.947 26.947s10.779 26.947 26.947 26.947h26.947c16.168 0 26.947-10.779 26.947-26.947s-10.779-26.947-26.947-26.947zM700.632 213.558c-8.084 0-18.863 5.389-24.253 13.474-8.084 13.474-2.695 29.642 10.779 37.726 5.389 2.695 8.084 5.389 10.779 10.779 8.084 13.474 24.253 16.168 37.726 10.779 13.474-8.084 16.168-24.253 10.779-37.726-8.084-13.474-16.168-21.558-29.642-29.642-8.084-5.389-10.779-5.389-16.168-5.389zM727.579 342.905c-16.168 0-26.947 10.779-26.947 26.947v26.947c0 16.168 10.779 26.947 26.947 26.947s26.947-10.779 26.947-26.947v-26.947c0-13.474-10.779-26.947-26.947-26.947zM727.579 483.032c-16.168 0-26.947 10.779-26.947 26.947v26.947c0 16.168 10.779 26.947 26.947 26.947s26.947-10.779 26.947-26.947v-26.947c0-13.474-10.779-26.947-26.947-26.947zM711.411 620.463c-8.084 0-13.474 2.695-18.863 8.084-2.695 2.695-2.695 2.695-5.389 5.389-13.474 8.084-16.168 24.253-10.779 37.726 8.084 13.474 24.253 16.168 37.726 10.779 5.389-2.695 10.779-8.084 16.168-10.779 10.779-10.779 10.779-26.947 0-37.726-5.389-10.779-10.779-13.474-18.863-13.474zM447.326 86.905c-8.084 0-13.474 2.695-18.863 8.084s-8.084 10.779-10.779 16.168c-8.084 13.474-2.695 29.642 10.779 37.726s29.642 2.695 37.726-10.779c0-2.695 2.695-2.695 5.389-5.389 10.779-10.779 10.779-26.947 0-37.726-10.779-5.389-18.863-8.084-24.253-8.084zM724.884 70.737h-26.947c-16.168 0-26.947 10.779-26.947 26.947s10.779 26.947 26.947 26.947h26.947c16.168 0 26.947-10.779 26.947-26.947s-13.474-26.947-26.947-26.947zM582.063 70.737h-26.947c-16.168 0-26.947 10.779-26.947 26.947s10.779 26.947 26.947 26.947h26.947c16.168 0 26.947-10.779 26.947-26.947s-10.779-26.947-26.947-26.947zM835.368 78.821c-8.084 0-18.863 5.389-24.253 13.474-8.084 13.474-2.695 29.642 10.779 37.726 5.389 2.695 8.084 5.389 10.779 10.779 8.084 13.474 24.253 16.168 37.726 10.779 13.474-8.084 16.168-24.253 10.779-37.726-8.084-13.474-16.168-21.558-29.642-29.642-8.084-5.389-10.779-5.389-16.168-5.389zM862.316 208.168c-16.168 0-26.947 10.779-26.947 26.947v26.947c0 16.168 10.779 26.947 26.947 26.947s26.947-10.779 26.947-26.947v-26.947c0-13.474-10.779-26.947-26.947-26.947zM862.316 348.295c-16.168 0-26.947 10.779-26.947 26.947v26.947c0 16.168 10.779 26.947 26.947 26.947s26.947-10.779 26.947-26.947v-26.947c0-13.474-10.779-26.947-26.947-26.947zM846.147 485.726c-8.084 0-13.474 2.695-18.863 8.084-2.695 2.695-2.695 2.695-5.389 5.389-13.474 8.084-16.168 24.253-10.779 37.726 8.084 13.474 24.253 16.168 37.726 10.779 5.389-2.695 10.779-8.084 16.168-10.779 10.779-10.779 10.779-26.947 0-37.726-5.389-10.779-10.779-13.474-18.863-13.474z" />
<glyph unicode="&#xe90e;" glyph-name="arrange-send-back" d="M514.695 340.211h-26.947c-16.168 0-26.947 10.779-26.947 26.947s10.779 26.947 26.947 26.947h26.947c16.168 0 26.947-10.779 26.947-26.947s-13.474-26.947-26.947-26.947zM377.263 340.211h-26.947c-16.168 0-26.947 10.779-26.947 26.947s10.779 26.947 26.947 26.947h26.947c16.168 0 26.947-10.779 26.947-26.947s-10.779-26.947-26.947-26.947zM242.526 340.211h-26.947c-16.168 0-26.947 10.779-26.947 26.947s10.779 26.947 26.947 26.947h26.947c16.168 0 26.947-10.779 26.947-26.947s-13.474-26.947-26.947-26.947zM592.842 394.105c-16.168 0-26.947 10.779-26.947 26.947v26.947c0 16.168 10.779 26.947 26.947 26.947s26.947-10.779 26.947-26.947v-26.947c0-16.168-10.779-26.947-26.947-26.947zM161.684 418.358c-16.168 0-26.947 10.779-26.947 26.947v26.947c0 16.168 10.779 26.947 26.947 26.947s26.947-10.779 26.947-26.947v-26.947c0-13.474-10.779-26.947-26.947-26.947zM592.842 528.842c-16.168 0-26.947 10.779-26.947 26.947v26.947c0 16.168 10.779 26.947 26.947 26.947s26.947-10.779 26.947-26.947v-26.947c0-13.474-10.779-26.947-26.947-26.947zM161.684 555.789c-16.168 0-26.947 10.779-26.947 26.947v26.947c0 16.168 10.779 26.947 26.947 26.947s26.947-10.779 26.947-26.947v-26.947c0-16.168-10.779-26.947-26.947-26.947zM592.842 666.274c-16.168 0-26.947 10.779-26.947 26.947v26.947c0 16.168 10.779 26.947 26.947 26.947s26.947-10.779 26.947-26.947v-26.947c0-16.168-10.779-26.947-26.947-26.947zM161.684 690.526c-16.168 0-26.947 10.779-26.947 26.947v26.947c0 16.168 10.779 26.947 26.947 26.947s26.947-10.779 26.947-26.947v-26.947c0-16.168-10.779-26.947-26.947-26.947zM538.947 771.368v0h-26.947c-16.168 0-26.947 10.779-26.947 26.947s10.779 26.947 26.947 26.947h26.947c16.168 0 26.947-10.779 26.947-26.947s-10.779-26.947-26.947-26.947zM404.211 771.368h-26.947c-16.168 0-26.947 10.779-26.947 26.947s10.779 26.947 26.947 26.947h26.947c16.168 0 26.947-10.779 26.947-26.947s-13.474-26.947-26.947-26.947zM266.779 771.368h-26.947c-16.168 0-26.947 10.779-26.947 26.947s10.779 26.947 26.947 26.947h26.947c16.168 0 26.947-10.779 26.947-26.947s-10.779-26.947-26.947-26.947zM312.589 221.642c-8.084 0-13.474 2.695-18.863 8.084s-8.084 10.779-10.779 16.168c-8.084 13.474-2.695 29.642 10.779 37.726s29.642 2.695 37.726-10.779c0-2.695 2.695-2.695 5.389-5.389 10.779-10.779 10.779-26.947 0-37.726-10.779-5.389-18.863-8.084-24.253-8.084zM590.147 205.474h-26.947c-16.168 0-26.947 10.779-26.947 26.947s10.779 26.947 26.947 26.947h26.947c16.168 0 26.947-10.779 26.947-26.947s-13.474-26.947-26.947-26.947zM447.326 205.474h-26.947c-16.168 0-26.947 10.779-26.947 26.947s10.779 26.947 26.947 26.947h26.947c16.168 0 26.947-10.779 26.947-26.947s-10.779-26.947-26.947-26.947zM700.632 213.558c-8.084 0-18.863 5.389-24.253 13.474-8.084 13.474-2.695 29.642 10.779 37.726 5.389 2.695 8.084 5.389 10.779 10.779 8.084 13.474 24.253 16.168 37.726 10.779 13.474-8.084 16.168-24.253 10.779-37.726-8.084-13.474-16.168-21.558-29.642-29.642-8.084-5.389-10.779-5.389-16.168-5.389zM727.579 342.905c-16.168 0-26.947 10.779-26.947 26.947v26.947c0 16.168 10.779 26.947 26.947 26.947s26.947-10.779 26.947-26.947v-26.947c0-13.474-10.779-26.947-26.947-26.947zM727.579 483.032c-16.168 0-26.947 10.779-26.947 26.947v26.947c0 16.168 10.779 26.947 26.947 26.947s26.947-10.779 26.947-26.947v-26.947c0-13.474-10.779-26.947-26.947-26.947zM711.411 620.463c-8.084 0-13.474 2.695-18.863 8.084-2.695 2.695-2.695 2.695-5.389 5.389-13.474 8.084-16.168 24.253-10.779 37.726 8.084 13.474 24.253 16.168 37.726 10.779 5.389-2.695 10.779-8.084 16.168-10.779 10.779-10.779 10.779-26.947 0-37.726-5.389-10.779-10.779-13.474-18.863-13.474zM808.421 70.737h-323.368c-29.642 0-53.895 16.168-70.063 40.421-8.084 13.474-2.695 29.642 10.779 37.726s29.642 2.695 37.726-10.779c5.389-8.084 13.474-13.474 24.253-13.474h323.368c16.168 0 26.947 10.779 26.947 26.947v323.368c0 10.779-5.389 18.863-13.474 24.253-13.474 8.084-16.168 24.253-10.779 37.726 8.084 13.474 24.253 16.168 37.726 10.779 21.558-18.863 37.726-43.116 37.726-72.758v-323.368c0-45.811-35.032-80.842-80.842-80.842z" />
<glyph unicode="&#xe90f;" glyph-name="arrange-send-backward" d="M514.695 340.211h-26.947c-16.168 0-26.947 10.779-26.947 26.947s10.779 26.947 26.947 26.947h26.947c16.168 0 26.947-10.779 26.947-26.947s-13.474-26.947-26.947-26.947zM377.263 340.211h-26.947c-16.168 0-26.947 10.779-26.947 26.947s10.779 26.947 26.947 26.947h26.947c16.168 0 26.947-10.779 26.947-26.947s-10.779-26.947-26.947-26.947zM242.526 340.211h-26.947c-16.168 0-26.947 10.779-26.947 26.947s10.779 26.947 26.947 26.947h26.947c16.168 0 26.947-10.779 26.947-26.947s-13.474-26.947-26.947-26.947zM592.842 394.105c-16.168 0-26.947 10.779-26.947 26.947v26.947c0 16.168 10.779 26.947 26.947 26.947s26.947-10.779 26.947-26.947v-26.947c0-16.168-10.779-26.947-26.947-26.947zM161.684 418.358c-16.168 0-26.947 10.779-26.947 26.947v26.947c0 16.168 10.779 26.947 26.947 26.947s26.947-10.779 26.947-26.947v-26.947c0-13.474-10.779-26.947-26.947-26.947zM592.842 528.842c-16.168 0-26.947 10.779-26.947 26.947v26.947c0 16.168 10.779 26.947 26.947 26.947s26.947-10.779 26.947-26.947v-26.947c0-13.474-10.779-26.947-26.947-26.947zM161.684 555.789c-16.168 0-26.947 10.779-26.947 26.947v26.947c0 16.168 10.779 26.947 26.947 26.947s26.947-10.779 26.947-26.947v-26.947c0-16.168-10.779-26.947-26.947-26.947zM592.842 666.274c-16.168 0-26.947 10.779-26.947 26.947v26.947c0 16.168 10.779 26.947 26.947 26.947s26.947-10.779 26.947-26.947v-26.947c0-16.168-10.779-26.947-26.947-26.947zM161.684 690.526c-16.168 0-26.947 10.779-26.947 26.947v26.947c0 16.168 10.779 26.947 26.947 26.947s26.947-10.779 26.947-26.947v-26.947c0-16.168-10.779-26.947-26.947-26.947zM538.947 771.368v0h-26.947c-16.168 0-26.947 10.779-26.947 26.947s10.779 26.947 26.947 26.947h26.947c16.168 0 26.947-10.779 26.947-26.947s-10.779-26.947-26.947-26.947zM404.211 771.368h-26.947c-16.168 0-26.947 10.779-26.947 26.947s10.779 26.947 26.947 26.947h26.947c16.168 0 26.947-10.779 26.947-26.947s-13.474-26.947-26.947-26.947zM266.779 771.368h-26.947c-16.168 0-26.947 10.779-26.947 26.947s10.779 26.947 26.947 26.947h26.947c16.168 0 26.947-10.779 26.947-26.947s-10.779-26.947-26.947-26.947zM808.421 70.737h-323.368c-45.811 0-80.842 35.032-80.842 80.842v107.789c0 16.168 10.779 26.947 26.947 26.947s26.947-10.779 26.947-26.947v-107.789c0-16.168 10.779-26.947 26.947-26.947h323.368c16.168 0 26.947 10.779 26.947 26.947v323.368c0 16.168-10.779 26.947-26.947 26.947h-107.789c-16.168 0-26.947 10.779-26.947 26.947s10.779 26.947 26.947 26.947h107.789c45.811 0 80.842-35.032 80.842-80.842v-323.368c0-45.811-35.032-80.842-80.842-80.842z" />
<glyph unicode="&#xe910;" glyph-name="arrow-decrease" d="M722.189 658.189c-10.779 10.779-26.947 10.779-37.726 0l-336.842-336.842v204.8c0 16.168-10.779 26.947-26.947 26.947s-26.947-10.779-26.947-26.947v-269.474c0-2.695 0-8.084 2.695-10.779 2.695-5.389 8.084-10.779 13.474-13.474 2.695-2.695 8.084-2.695 10.779-2.695h269.474c16.168 0 26.947 10.779 26.947 26.947s-10.779 26.947-26.947 26.947h-204.8l334.147 334.147c13.474 13.474 13.474 29.642 2.695 40.421z" />
<glyph unicode="&#xe911;" glyph-name="arrow-down" d="M722.189 388.716c-10.779 10.779-26.947 10.779-37.726 0l-145.516-145.516v474.274c0 16.168-10.779 26.947-26.947 26.947s-26.947-10.779-26.947-26.947v-474.274l-145.516 145.516c-10.779 10.779-26.947 10.779-37.726 0s-10.779-26.947 0-37.726l191.326-191.326c2.695-2.695 5.389-5.389 8.084-5.389 2.695-2.695 8.084-2.695 10.779-2.695s8.084 0 10.779 2.695c2.695 2.695 5.389 2.695 8.084 5.389l191.326 191.326c10.779 10.779 10.779 26.947 0 37.726z" />
<glyph unicode="&#xe912;" glyph-name="arrow-increase" d="M727.579 650.105c-2.695 5.389-8.084 10.779-13.474 13.474-2.695 2.695-8.084 2.695-10.779 2.695h-269.474c-16.168 0-26.947-10.779-26.947-26.947s10.779-26.947 26.947-26.947h204.8l-336.842-336.842c-10.779-10.779-10.779-26.947 0-37.726 5.389-5.389 13.474-8.084 18.863-8.084s13.474 2.695 18.863 8.084l334.147 334.147v-204.8c0-16.168 10.779-26.947 26.947-26.947s26.947 10.779 26.947 26.947v269.474c2.695 5.389 0 8.084 0 13.474z" />
<glyph unicode="&#xe913;" glyph-name="arrow-left" d="M781.474 474.947h-474.274l145.516 145.516c10.779 10.779 10.779 26.947 0 37.726s-26.947 10.779-37.726 0l-191.326-191.326c-2.695-2.695-5.389-5.389-5.389-8.084-2.695-5.389-2.695-13.474 0-21.558 2.695-2.695 2.695-5.389 5.389-8.084l191.326-191.326c5.389-5.389 13.474-8.084 18.863-8.084s13.474 2.695 18.863 8.084c10.779 10.779 10.779 26.947 0 37.726l-145.516 145.516h474.274c16.168 0 26.947 10.779 26.947 26.947s-10.779 26.947-26.947 26.947z" />
<glyph unicode="&#xe914;" glyph-name="arrow-right" d="M805.726 437.221c2.695 5.389 2.695 13.474 0 21.558-2.695 2.695-2.695 5.389-5.389 8.084l-191.326 191.326c-10.779 10.779-26.947 10.779-37.726 0s-10.779-26.947 0-37.726l145.516-145.516h-474.274c-16.168 0-26.947-10.779-26.947-26.947s10.779-26.947 26.947-26.947h474.274l-145.516-145.516c-10.779-10.779-10.779-26.947 0-37.726 5.389-5.389 13.474-8.084 18.863-8.084s13.474 2.695 18.863 8.084l191.326 191.326c2.695 2.695 5.389 5.389 5.389 8.084z" />
<glyph unicode="&#xe915;" glyph-name="arrow-up-down" d="M829.979 625.853l-191.326 191.326c-2.695 2.695-5.389 5.389-8.084 5.389-5.389 2.695-13.474 2.695-21.558 0-5.389-2.695-10.779-8.084-13.474-13.474-2.695-2.695-2.695-8.084-2.695-10.779v-538.947c0-16.168 10.779-26.947 26.947-26.947s26.947 10.779 26.947 26.947v474.274l145.516-145.516c5.389-5.389 13.474-8.084 18.863-8.084s13.474 2.695 18.863 8.084c10.779 10.779 10.779 26.947 0 37.726zM404.211 663.579c-16.168 0-26.947-10.779-26.947-26.947v-474.274l-145.516 145.516c-10.779 10.779-26.947 10.779-37.726 0s-10.779-26.947 0-37.726l191.326-191.326c2.695-2.695 5.389-5.389 8.084-5.389 2.695-2.695 8.084-2.695 10.779-2.695s8.084 0 10.779 2.695c5.389 2.695 10.779 8.084 13.474 13.474 2.695 2.695 2.695 8.084 2.695 10.779v538.947c0 16.168-10.779 26.947-26.947 26.947z" />
<glyph unicode="&#xe916;" glyph-name="arrow-up" d="M722.189 545.011l-191.326 191.326c-2.695 2.695-5.389 5.389-8.084 5.389-5.389 2.695-13.474 2.695-21.558 0-2.695-2.695-5.389-2.695-8.084-5.389l-191.326-191.326c-10.779-10.779-10.779-26.947 0-37.726 5.389-5.389 13.474-8.084 18.863-8.084s13.474 2.695 18.863 8.084l145.516 145.516v-474.274c0-16.168 10.779-26.947 26.947-26.947s26.947 10.779 26.947 26.947v474.274l145.516-145.516c5.389-5.389 13.474-8.084 18.863-8.084s13.474 2.695 18.863 8.084c10.779 10.779 10.779 26.947 0 37.726z" />
<glyph unicode="&#xe917;" glyph-name="aside" d="M377.263 70.737h-161.684c-45.811 0-80.842 35.032-80.842 80.842v592.842c0 45.811 35.032 80.842 80.842 80.842h161.684c45.811 0 80.842-35.032 80.842-80.842v-592.842c0-45.811-35.032-80.842-80.842-80.842zM215.579 771.368c-16.168 0-26.947-10.779-26.947-26.947v-592.842c0-16.168 10.779-26.947 26.947-26.947h161.684c16.168 0 26.947 10.779 26.947 26.947v592.842c0 16.168-10.779 26.947-26.947 26.947h-161.684zM808.421 70.737h-280.253c-16.168 0-26.947 10.779-26.947 26.947s10.779 26.947 26.947 26.947h280.253c16.168 0 26.947 10.779 26.947 26.947v592.842c0 16.168-10.779 26.947-26.947 26.947h-280.253c-16.168 0-26.947 10.779-26.947 26.947s10.779 26.947 26.947 26.947h280.253c45.811 0 80.842-35.032 80.842-80.842v-592.842c0-45.811-35.032-80.842-80.842-80.842z" />
<glyph unicode="&#xe918;" glyph-name="assembly" d="M848.842 299.789l-234.442 234.442c2.695 16.168 5.389 32.337 5.389 48.505 0 134.737-107.789 242.526-242.526 242.526-29.642 0-59.284-5.389-88.926-16.168-8.084-2.695-13.474-10.779-16.168-18.863s0-18.863 8.084-24.253l97.011-97.011c24.253-24.253 24.253-61.979 0-83.537-24.253-24.253-61.979-24.253-83.537 0l-97.011 97.011c-8.084 5.389-16.168 8.084-24.253 5.389s-16.168-8.084-18.863-16.168c-13.474-29.642-18.863-59.284-18.863-88.926 0-134.737 107.789-242.526 242.526-242.526 16.168 0 32.337 2.695 48.505 5.389l234.442-234.442c26.947-26.947 61.979-40.421 94.316-40.421 35.032 0 70.063 13.474 94.316 40.421 53.895 51.2 53.895 137.432 0 188.632zM188.632 582.737c0 8.084 0 18.863 2.695 26.947l64.674-64.674c43.116-43.116 115.874-43.116 158.989 0s43.116 115.874 0 158.989l-64.674 64.674c8.084 2.695 18.863 2.695 26.947 2.695 105.095 0 188.632-83.537 188.632-188.632s-83.537-188.632-188.632-188.632-188.632 83.537-188.632 188.632zM811.116 148.884c-32.337-32.337-83.537-32.337-113.179 0l-215.579 215.579c51.2 24.253 91.621 64.674 113.179 113.179l215.579-215.579c32.337-32.337 32.337-83.537 0-113.179zM665.6 674.358c13.474-8.084 29.642-2.695 37.726 10.779 13.474 24.253 18.863 29.642 18.863 29.642l56.589 56.589 56.589-56.589-56.589-56.589c-8.084-5.389-51.2-32.337-88.926-53.895-13.474-8.084-18.863-24.253-10.779-37.726 5.389-8.084 13.474-13.474 24.253-13.474 5.389 0 8.084 0 13.474 2.695 40.421 21.558 91.621 51.2 102.4 61.979l56.589 56.589c21.558 21.558 21.558 53.895 0 75.453l-56.589 56.589c-21.558 21.558-53.895 21.558-75.453 0l-56.589-56.589c-2.695-2.695-8.084-10.779-26.947-40.421-10.779-10.779-8.084-26.947 5.389-35.032zM417.684 237.811l-88.926-88.926c-29.642-29.642-83.537-29.642-113.179 0-32.337 32.337-32.337 83.537 0 113.179l21.558 21.558c10.779 10.779 10.779 26.947 0 37.726s-26.947 10.779-37.726 0l-21.558-21.558c-51.2-51.2-51.2-137.432 0-191.326 21.558-24.253 56.589-37.726 91.621-37.726s70.063 13.474 94.316 40.421l88.926 88.926c10.779 10.779 10.779 26.947 0 37.726s-24.253 10.779-35.032 0z" />
<glyph unicode="&#xe919;" glyph-name="assets" d="M714.105 448c-80.842 0-148.211 67.368-148.211 148.211s67.368 148.211 148.211 148.211 148.211-67.368 148.211-148.211-67.368-148.211-148.211-148.211zM714.105 690.526c-51.2 0-94.316-43.116-94.316-94.316s43.116-94.316 94.316-94.316 94.316 43.116 94.316 94.316-43.116 94.316-94.316 94.316zM881.179 197.389l-153.6 161.684c-5.389 5.389-10.779 8.084-18.863 8.084s-13.474-2.695-18.863-8.084l-78.147-80.842-175.158 172.463c-10.779 10.779-26.947 10.779-37.726 0l-256-250.611c-8.084-8.084-10.779-21.558-5.389-29.642s13.474-18.863 24.253-18.863h700.632c10.779 0 21.558 5.389 24.253 16.168s2.695 21.558-5.389 29.642zM226.358 205.474l188.632 185.937 188.632-185.937h-377.263zM684.463 205.474l-35.032 35.032 59.284 61.979 91.621-97.011c0 0-115.874 0-115.874 0z" />
<glyph unicode="&#xe91a;" glyph-name="attachment" d="M390.737 70.737c-53.895 0-107.789 21.558-150.905 61.979-83.537 83.537-83.537 218.274 0 299.116l350.316 350.316c0 0 2.695 2.695 2.695 2.695 26.947 26.947 64.674 40.421 102.4 40.421 40.421 0 78.147-16.168 105.095-43.116 29.642-29.642 43.116-67.368 43.116-105.095s-16.168-78.147-43.116-105.095l-301.811-307.2c-35.032-35.032-91.621-35.032-126.653 0s-35.032 91.621 0 126.653l204.8 204.8c10.779 10.779 26.947 10.779 37.726 0s10.779-26.947 0-37.726l-204.8-204.8c-13.474-13.474-13.474-35.032 0-48.505s35.032-13.474 48.505 0l304.505 304.505c18.863 18.863 26.947 43.116 26.947 67.368s-8.084 48.505-26.947 67.368c-37.726 37.726-99.705 37.726-137.432 0 0 0-2.695-2.695-2.695-2.695l-344.926-347.621c-61.979-61.979-61.979-161.684 0-223.663s161.684-61.979 223.663 0l247.916 247.916c10.779 10.779 26.947 10.779 37.726 0s10.779-26.947 0-37.726l-247.916-247.916c-40.421-40.421-94.316-61.979-148.211-61.979z" />
<glyph unicode="&#xe91b;" glyph-name="audio" d="M862.316 474.947c-24.253 0-43.116 21.558-43.116 45.811v0c0 0 0 0 0 0 0 53.895-43.116 99.705-97.011 99.705s-97.011-45.811-97.011-99.705v-145.516c0-24.253-18.863-45.811-43.116-45.811s-43.116 21.558-43.116 45.811v253.305c0 53.895-43.116 99.705-97.011 99.705s-97.011-45.811-97.011-99.705v-361.095c0-24.253-18.863-45.811-43.116-45.811s-43.116 21.558-43.116 45.811v107.789c0 53.895-43.116 99.705-97.011 99.705-16.168 0-26.947-10.779-26.947-26.947s10.779-26.947 26.947-26.947c24.253 0 43.116-21.558 43.116-45.811v-107.789c0-53.895 43.116-99.705 97.011-99.705s97.011 45.811 97.011 99.705v361.095c0 24.253 18.863 45.811 43.116 45.811s43.116-21.558 43.116-45.811v-253.305c0-53.895 43.116-99.705 97.011-99.705s97.011 45.811 97.011 99.705v145.516c0 24.253 18.863 45.811 43.116 45.811s43.116-21.558 43.116-45.811v0c0-53.895 43.116-99.705 97.011-99.705 16.168 0 26.947 10.779 26.947 26.947s-10.779 26.947-26.947 26.947z" />
<glyph unicode="&#xe91c;" glyph-name="block" d="M862.316 588.126c0 0 0 2.695 0 0l-210.189 204.8c0 0 0 2.695-2.695 2.695-16.168 16.168-37.726 24.253-61.979 24.253h-363.789c-48.505 2.695-88.926-37.726-88.926-86.232v-361.095c0-24.253 10.779-45.811 26.947-64.674v0l196.716-194.021c13.474-24.253 40.421-40.421 70.063-40.421h379.958c45.811 0 80.842 35.032 80.842 80.842v374.568c0 24.253-10.779 45.811-26.947 59.284zM188.632 733.642c0 18.863 16.168 32.337 35.032 32.337h366.484c8.084 0 18.863-2.695 21.558-8.084l2.695-2.695 150.905-145.516h-336.842c-45.811 0-80.842-35.032-80.842-80.842v-328.758l-148.211 145.516c-5.389 8.084-10.779 18.863-10.779 26.947v361.095zM835.368 154.274c0-16.168-10.779-26.947-26.947-26.947h-379.958c-16.168 0-26.947 10.779-26.947 26.947v374.568c0 16.168 10.779 26.947 26.947 26.947h379.958c16.168 0 26.947-10.779 26.947-26.947v-374.568z" />
<glyph unicode="&#xe91d;" glyph-name="board" d="M781.474 367.158h-161.684c-45.811 0-80.842 35.032-80.842 80.842v215.579c0 45.811 35.032 80.842 80.842 80.842h161.684c45.811 0 80.842-35.032 80.842-80.842v-215.579c0-45.811-35.032-80.842-80.842-80.842zM619.789 690.526c-16.168 0-26.947-10.779-26.947-26.947v-215.579c0-16.168 10.779-26.947 26.947-26.947h161.684c16.168 0 26.947 10.779 26.947 26.947v215.579c0 16.168-10.779 26.947-26.947 26.947h-161.684zM404.211 151.579h-161.684c-45.811 0-80.842 35.032-80.842 80.842v431.158c0 45.811 35.032 80.842 80.842 80.842h161.684c45.811 0 80.842-35.032 80.842-80.842v-431.158c0-45.811-35.032-80.842-80.842-80.842zM242.526 690.526c-16.168 0-26.947-10.779-26.947-26.947v-431.158c0-16.168 10.779-26.947 26.947-26.947h161.684c16.168 0 26.947 10.779 26.947 26.947v431.158c0 16.168-10.779 26.947-26.947 26.947h-161.684z" />
<glyph unicode="&#xe91e;" glyph-name="book" d="M768 825.263h-458.105c-59.284 0-107.789-48.505-107.789-107.789v-538.947c0-59.284 48.505-107.789 107.789-107.789h458.105c29.642 0 53.895 24.253 53.895 53.895v646.737c0 29.642-24.253 53.895-53.895 53.895zM309.895 771.368h458.105v-485.053h-458.105c-18.863 0-37.726-5.389-53.895-16.168v447.326c0 29.642 24.253 53.895 53.895 53.895zM309.895 124.632c-29.642 0-53.895 24.253-53.895 53.895s24.253 53.895 53.895 53.895h458.105v-107.789h-458.105z" />
<glyph unicode="&#xe91f;" glyph-name="bulb" d="M512 313.263v0c-134.737 0-242.526 107.789-242.526 242.526 0 64.674 24.253 126.653 70.063 172.463 45.811 43.116 107.789 70.063 172.463 70.063v0c134.737 0 242.526-107.789 242.526-242.526 0-64.674-24.253-126.653-70.063-172.463s-107.789-70.063-172.463-70.063zM512 744.421c-51.2 0-97.011-18.863-132.042-53.895s-53.895-83.537-53.895-132.042c0-105.095 83.537-188.632 188.632-188.632v0c51.2 0 97.011 18.863 132.042 53.895s53.895 83.537 53.895 132.042c0 102.4-83.537 188.632-188.632 188.632v0zM506.611 97.684c-29.642 0-56.589 10.779-78.147 32.337-18.863 18.863-26.947 40.421-26.947 64.674 0 13.474 13.474 26.947 26.947 26.947v0c16.168 0 26.947-13.474 26.947-26.947 0-10.779 5.389-18.863 10.779-26.947 10.779-10.779 24.253-16.168 40.421-16.168h13.474c16.168 0 29.642 5.389 40.421 16.168 8.084 8.084 10.779 16.168 10.779 26.947 0 16.168 10.779 26.947 26.947 26.947v0c13.474 0 26.947-10.779 26.947-26.947 0-24.253-10.779-48.505-26.947-64.674-18.863-18.863-48.505-32.337-78.147-32.337h-13.474z" />
<glyph unicode="&#xe920;" glyph-name="business-entity" d="M404.211 771.368h-161.684c-16.168 0-26.947 10.779-26.947 26.947s10.779 26.947 26.947 26.947h161.684c16.168 0 26.947-10.779 26.947-26.947s-10.779-26.947-26.947-26.947zM431.158 70.737h-215.579c-45.811 0-80.842 35.032-80.842 80.842v458.105c0 45.811 35.032 80.842 80.842 80.842h215.579c45.811 0 80.842-35.032 80.842-80.842v-458.105c0-45.811-35.032-80.842-80.842-80.842zM215.579 636.632c-16.168 0-26.947-10.779-26.947-26.947v-458.105c0-16.168 10.779-26.947 26.947-26.947h215.579c16.168 0 26.947 10.779 26.947 26.947v458.105c0 16.168-10.779 26.947-26.947 26.947h-215.579zM808.421 70.737h-226.358c-16.168 0-26.947 10.779-26.947 26.947s10.779 26.947 26.947 26.947h226.358c16.168 0 26.947 10.779 26.947 26.947v242.526c0 16.168-10.779 26.947-26.947 26.947h-226.358c-16.168 0-26.947 10.779-26.947 26.947s10.779 26.947 26.947 26.947h226.358c45.811 0 80.842-35.032 80.842-80.842v-242.526c0-45.811-35.032-80.842-80.842-80.842z" />
<glyph unicode="&#xe921;" glyph-name="button" d="M808.421 259.368h-592.842c-45.811 0-80.842 35.032-80.842 80.842v215.579c0 45.811 35.032 80.842 80.842 80.842h592.842c45.811 0 80.842-35.032 80.842-80.842v-215.579c0-45.811-35.032-80.842-80.842-80.842zM215.579 582.737c-16.168 0-26.947-10.779-26.947-26.947v-215.579c0-16.168 10.779-26.947 26.947-26.947h592.842c16.168 0 26.947 10.779 26.947 26.947v215.579c0 16.168-10.779 26.947-26.947 26.947h-592.842zM687.158 421.053h-350.316c-16.168 0-26.947 10.779-26.947 26.947s10.779 26.947 26.947 26.947h350.316c16.168 0 26.947-10.779 26.947-26.947s-10.779-26.947-26.947-26.947z" />
<glyph unicode="&#xe922;" glyph-name="cache" d="M875.789 631.242c-2.695 2.695-5.389 2.695-8.084 2.695l-344.926 175.158c-8.084 2.695-16.168 2.695-24.253 0l-350.316-175.158c-8.084-5.389-13.474-16.168-13.474-24.253 0 0 0 0 0 0s0 0 0 0v-161.684c0 0 0 0 0 0s0 0 0 0v-161.684c0-10.779 5.389-18.863 13.474-24.253l350.316-175.158c2.695-2.695 8.084-2.695 13.474-2.695s8.084 0 10.779 2.695l350.316 175.158c8.084 5.389 16.168 13.474 16.168 24.253v161.684c0 0 0 0 0 0s0 0 0 0v161.684c0 8.084-5.389 18.863-13.474 21.558zM835.368 566.568v-99.705l-323.368-161.684-323.368 161.684v99.705l309.895-156.295c8.084-2.695 16.168-2.695 24.253 0l312.589 156.295zM512 755.2l288.337-145.516-126.653-61.979-164.379-80.842-288.337 142.821 291.032 145.516zM835.368 302.484l-323.368-161.684-323.368 161.684v99.705l309.895-156.295c8.084-2.695 16.168-2.695 24.253 0l312.589 158.989v-102.4z" />
<glyph unicode="&#xe923;" glyph-name="calendar" d="M350.316 609.684c16.168 0 26.947 10.779 26.947 26.947v161.684c0 16.168-10.779 26.947-26.947 26.947s-26.947-10.779-26.947-26.947v-161.684c0-16.168 10.779-26.947 26.947-26.947zM673.684 609.684c16.168 0 26.947 10.779 26.947 26.947v161.684c0 16.168-10.779 26.947-26.947 26.947s-26.947-10.779-26.947-26.947v-161.684c0-16.168 10.779-26.947 26.947-26.947zM808.421 744.421h-26.947c-16.168 0-26.947-10.779-26.947-26.947s10.779-26.947 26.947-26.947h26.947c16.168 0 26.947-10.779 26.947-26.947v-134.737h-646.737v134.737c0 16.168 10.779 26.947 26.947 26.947h26.947c16.168 0 26.947 10.779 26.947 26.947s-10.779 26.947-26.947 26.947h-26.947c-45.811 0-80.842-35.032-80.842-80.842v-512c0-45.811 35.032-80.842 80.842-80.842h592.842c45.811 0 80.842 35.032 80.842 80.842v512c0 45.811-35.032 80.842-80.842 80.842zM808.421 124.632h-592.842c-16.168 0-26.947 10.779-26.947 26.947v323.368h646.737v-323.368c0-16.168-10.779-26.947-26.947-26.947zM458.105 690.526h107.789c16.168 0 26.947 10.779 26.947 26.947s-10.779 26.947-26.947 26.947h-107.789c-16.168 0-26.947-10.779-26.947-26.947s10.779-26.947 26.947-26.947z" />
<glyph unicode="&#xe924;" glyph-name="cards-horizontal" d="M579.368 70.737h-323.368c-45.811 0-80.842 35.032-80.842 80.842v592.842c0 45.811 35.032 80.842 80.842 80.842h323.368c45.811 0 80.842-35.032 80.842-80.842v-592.842c0-45.811-35.032-80.842-80.842-80.842zM256 771.368c-16.168 0-26.947-10.779-26.947-26.947v-592.842c0-16.168 10.779-26.947 26.947-26.947h323.368c16.168 0 26.947 10.779 26.947 26.947v592.842c0 16.168-10.779 26.947-26.947 26.947h-323.368zM821.895 70.737c-45.811 0-80.842 35.032-80.842 80.842v592.842c0 45.811 35.032 80.842 80.842 80.842 16.168 0 26.947-10.779 26.947-26.947s-10.779-26.947-26.947-26.947-26.947-10.779-26.947-26.947v-592.842c0-16.168 10.779-26.947 26.947-26.947s26.947-10.779 26.947-26.947c0-16.168-10.779-26.947-26.947-26.947z" />
<glyph unicode="&#xe925;" glyph-name="cards" d="M808.421 340.211h-592.842c-45.811 0-80.842 35.032-80.842 80.842v323.368c0 45.811 35.032 80.842 80.842 80.842h592.842c45.811 0 80.842-35.032 80.842-80.842v-323.368c0-45.811-35.032-80.842-80.842-80.842zM215.579 771.368c-16.168 0-26.947-10.779-26.947-26.947v-323.368c0-16.168 10.779-26.947 26.947-26.947h592.842c16.168 0 26.947 10.779 26.947 26.947v323.368c0 16.168-10.779 26.947-26.947 26.947h-592.842zM754.526 205.474h-485.053c-16.168 0-26.947 10.779-26.947 26.947s10.779 26.947 26.947 26.947h485.053c16.168 0 26.947-10.779 26.947-26.947s-10.779-26.947-26.947-26.947zM700.632 70.737h-377.263c-16.168 0-26.947 10.779-26.947 26.947s10.779 26.947 26.947 26.947h377.263c16.168 0 26.947-10.779 26.947-26.947s-10.779-26.947-26.947-26.947z" />
<glyph unicode="&#xe926;" glyph-name="carousel" d="M673.684 205.474h-323.368c-45.811 0-80.842 35.032-80.842 80.842v323.368c0 45.811 35.032 80.842 80.842 80.842h323.368c45.811 0 80.842-35.032 80.842-80.842v-323.368c0-45.811-35.032-80.842-80.842-80.842zM350.316 636.632c-16.168 0-26.947-10.779-26.947-26.947v-323.368c0-16.168 10.779-26.947 26.947-26.947h323.368c16.168 0 26.947 10.779 26.947 26.947v323.368c0 16.168-10.779 26.947-26.947 26.947h-323.368zM862.316 272.842c-16.168 0-26.947 10.779-26.947 26.947v296.421c0 16.168 10.779 26.947 26.947 26.947s26.947-10.779 26.947-26.947v-296.421c0-16.168-10.779-26.947-26.947-26.947zM161.684 272.842c-16.168 0-26.947 10.779-26.947 26.947v296.421c0 16.168 10.779 26.947 26.947 26.947s26.947-10.779 26.947-26.947v-296.421c0-16.168-10.779-26.947-26.947-26.947zM512 70.737c-8.084 0-13.474 2.695-18.863 8.084-2.695 2.695-5.389 5.389-5.389 8.084s-2.695 5.389-2.695 10.779c0 8.084 2.695 13.474 8.084 18.863 10.779 10.779 26.947 10.779 37.726 0 5.389-5.389 8.084-10.779 8.084-18.863 0-2.695 0-8.084-2.695-10.779s-2.695-5.389-5.389-8.084c-5.389-5.389-10.779-8.084-18.863-8.084zM404.211 70.737c-8.084 0-13.474 2.695-18.863 8.084-2.695 2.695-5.389 5.389-5.389 8.084s-2.695 5.389-2.695 10.779c0 8.084 2.695 13.474 8.084 18.863 10.779 10.779 26.947 10.779 37.726 0 5.389-5.389 8.084-13.474 8.084-18.863 0-2.695 0-8.084-2.695-10.779s-2.695-5.389-5.389-8.084c-5.389-5.389-10.779-8.084-18.863-8.084zM619.789 70.737c-8.084 0-13.474 2.695-18.863 8.084-2.695 2.695-5.389 5.389-5.389 8.084s-2.695 5.389-2.695 10.779c0 8.084 2.695 13.474 8.084 18.863 10.779 10.779 26.947 10.779 37.726 0 5.389-5.389 8.084-13.474 8.084-18.863 0-2.695 0-8.084-2.695-10.779s-2.695-5.389-5.389-8.084c-5.389-5.389-10.779-8.084-18.863-8.084z" />
<glyph unicode="&#xe927;" glyph-name="cc" d="M447.326 321.347c-21.558-13.474-48.505-21.558-78.147-21.558-26.947 0-53.895 5.389-72.758 18.863-21.558 10.779-37.726 29.642-48.505 51.2s-16.168 48.505-16.168 78.147 5.389 56.589 16.168 78.147c10.779 21.558 26.947 40.421 48.505 51.2s45.811 18.863 72.758 18.863c29.642 0 56.589-5.389 75.453-18.863 21.558-13.474 35.032-32.337 43.116-56.589l-53.895-24.253c-5.389 16.168-10.779 29.642-21.558 37.726s-24.253 10.779-40.421 10.779c-24.253 0-43.116-8.084-56.589-26.947-13.474-13.474-18.863-37.726-18.863-70.063s5.389-56.589 18.863-72.758 32.337-26.947 56.589-26.947c35.032 0 56.589 16.168 67.368 51.2l56.589-16.168c-10.779-26.947-26.947-48.505-48.505-61.979zM746.442 321.347c-21.558-13.474-48.505-21.558-78.147-21.558-26.947 0-53.895 5.389-72.758 18.863-21.558 10.779-37.726 29.642-48.505 51.2s-16.168 48.505-16.168 78.147 5.389 56.589 16.168 78.147c10.779 21.558 26.947 40.421 48.505 51.2s45.811 18.863 72.758 18.863c29.642 0 56.589-5.389 75.453-18.863 21.558-13.474 35.032-32.337 43.116-56.589l-53.895-24.253c-5.389 16.168-10.779 29.642-21.558 37.726s-24.253 10.779-40.421 10.779c-24.253 0-43.116-8.084-56.589-26.947-13.474-13.474-21.558-37.726-21.558-70.063s5.389-56.589 18.863-72.758 32.337-26.947 56.589-26.947c35.032 0 56.589 16.168 67.368 51.2l56.589-16.168c-10.779-26.947-24.253-48.505-45.811-61.979z" />
<glyph unicode="&#xe928;" glyph-name="chart" d="M161.684 205.474c-8.084 0-13.474 2.695-18.863 8.084-10.779 10.779-10.779 26.947 0 37.726l191.326 188.632c5.389 5.389 10.779 8.084 18.863 8.084h258.695l231.747 234.442c10.779 10.779 26.947 10.779 37.726 0s10.779-26.947 0-37.726l-239.832-242.526c-5.389-5.389-10.779-8.084-18.863-8.084h-258.695l-183.242-180.547c-5.389-5.389-10.779-8.084-18.863-8.084z" />
<glyph unicode="&#xe929;" glyph-name="check" d="M423.074 205.474c-8.084 0-13.474 2.695-18.863 8.084l-175.158 177.853c-10.779 10.779-10.779 26.947 0 37.726s26.947 10.779 37.726 0l153.6-156.295 336.842 406.905c10.779 10.779 26.947 13.474 37.726 2.695s13.474-26.947 2.695-37.726l-355.705-431.158c-2.695-5.389-10.779-8.084-18.863-8.084 0 0 0 0 0 0z" />
<glyph unicode="&#xe92a;" glyph-name="checkbox" d="M808.421 70.737h-592.842c-45.811 0-80.842 35.032-80.842 80.842v592.842c0 45.811 35.032 80.842 80.842 80.842h592.842c45.811 0 80.842-35.032 80.842-80.842v-43.116c0-5.389-2.695-13.474-5.389-16.168l-371.874-444.632c-5.389-5.389-10.779-8.084-18.863-10.779-8.084 0-16.168 2.695-21.558 8.084l-158.989 156.295c-10.779 10.779-10.779 26.947 0 37.726s26.947 10.779 37.726 0l137.432-134.737 347.621 414.989v32.337c0 16.168-10.779 26.947-26.947 26.947h-592.842c-16.168 0-26.947-10.779-26.947-26.947v-592.842c0-16.168 10.779-26.947 26.947-26.947h592.842c16.168 0 26.947 10.779 26.947 26.947v382.653c0 16.168 10.779 26.947 26.947 26.947s26.947-10.779 26.947-26.947v-382.653c0-45.811-35.032-80.842-80.842-80.842z" />
<glyph unicode="&#xe92b;" glyph-name="chevron-down" d="M722.189 561.179c-10.779 10.779-26.947 10.779-37.726 0l-172.463-169.768-172.463 172.463c-10.779 10.779-26.947 10.779-37.726 0s-10.779-26.947 0-37.726l191.326-191.326c5.389-5.389 13.474-8.084 18.863-8.084s13.474 2.695 18.863 8.084l191.326 191.326c10.779 8.084 10.779 26.947 0 35.032z" />
<glyph unicode="&#xe92c;" glyph-name="chevron-left" d="M455.411 448l172.463 172.463c10.779 10.779 10.779 26.947 0 37.726s-26.947 10.779-37.726 0l-191.326-191.326c-10.779-10.779-10.779-26.947 0-37.726l191.326-191.326c5.389-5.389 13.474-8.084 18.863-8.084s13.474 2.695 18.863 8.084c10.779 10.779 10.779 26.947 0 37.726l-172.463 172.463z" />
<glyph unicode="&#xe92d;" glyph-name="chevron-right" d="M625.179 466.863l-191.326 191.326c-10.779 10.779-26.947 10.779-37.726 0s-10.779-26.947 0-37.726l172.463-172.463-172.463-172.463c-10.779-10.779-10.779-26.947 0-37.726 5.389-5.389 13.474-8.084 18.863-8.084s13.474 2.695 18.863 8.084l191.326 191.326c10.779 10.779 10.779 26.947 0 37.726z" />
<glyph unicode="&#xe92e;" glyph-name="chevron-up" d="M722.189 372.547l-191.326 191.326c-10.779 10.779-26.947 10.779-37.726 0l-191.326-191.326c-10.779-10.779-10.779-26.947 0-37.726 5.389-5.389 13.474-8.084 18.863-8.084s13.474 2.695 18.863 8.084l172.463 172.463 172.463-172.463c5.389-5.389 13.474-8.084 18.863-8.084s13.474 2.695 18.863 8.084c10.779 8.084 10.779 26.947 0 37.726z" />
<glyph unicode="&#xe92f;" glyph-name="clean-list" d="M727.579 421.053h-431.158c-16.168 0-26.947 10.779-26.947 26.947s10.779 26.947 26.947 26.947h431.158c16.168 0 26.947-10.779 26.947-26.947s-10.779-26.947-26.947-26.947zM592.842 582.737h-431.158c-16.168 0-26.947 10.779-26.947 26.947s10.779 26.947 26.947 26.947h431.158c16.168 0 26.947-10.779 26.947-26.947s-10.779-26.947-26.947-26.947zM862.316 259.368h-431.158c-16.168 0-26.947 10.779-26.947 26.947s10.779 26.947 26.947 26.947h431.158c16.168 0 26.947-10.779 26.947-26.947s-10.779-26.947-26.947-26.947z" />
<glyph unicode="&#xe930;" glyph-name="click" d="M673.684 70.737h-231.747c-32.337 0-64.674 18.863-83.537 48.505l-148.211 194.021c-16.168 18.863-24.253 40.421-24.253 64.674 0 53.895 43.116 97.011 97.011 97.011 26.947 0 51.2-10.779 70.063-29.642 0 0 0 0 2.695-2.695l16.168-21.558v212.884c0 53.895 43.116 97.011 97.011 97.011s97.011-43.116 97.011-97.011v-145.516l207.495-64.674c40.421-10.779 70.063-48.505 70.063-94.316 0-16.168-2.695-29.642-10.779-43.116l-64.674-156.295c-18.863-35.032-53.895-59.284-94.316-59.284zM280.253 423.747c-24.253 0-43.116-18.863-43.116-43.116 0-10.779 5.389-21.558 10.779-29.642 0 0 0 0 2.695-2.695l150.905-196.716 2.695-2.695c8.084-13.474 21.558-21.558 37.726-21.558h231.747c16.168 0 32.337 10.779 40.421 26.947l67.368 158.989c5.389 8.084 5.389 16.168 5.389 21.558 0 18.863-13.474 35.032-32.337 40.421l-226.358 70.063c-10.779 2.695-18.863 13.474-18.863 26.947v164.379c0 24.253-18.863 43.116-43.116 43.116s-43.116-18.863-43.116-43.116v-296.421c0-10.779-8.084-21.558-18.863-24.253s-24.253 0-29.642 8.084l-64.674 83.537c-8.084 10.779-16.168 16.168-29.642 16.168zM627.874 606.989c-16.168 0-26.947 10.779-26.947 26.947 0 75.453-59.284 137.432-134.737 137.432s-134.737-61.979-134.737-137.432c0-16.168-10.779-26.947-26.947-26.947s-26.947 10.779-26.947 26.947c0 105.095 83.537 191.326 188.632 191.326s188.632-86.232 188.632-191.326c0-13.474-13.474-26.947-26.947-26.947z" />
<glyph unicode="&#xe931;" glyph-name="clock" d="M673.684 474.947h-134.737v134.737c0 16.168-10.779 26.947-26.947 26.947s-26.947-10.779-26.947-26.947v-161.684c0-16.168 10.779-26.947 26.947-26.947h161.684c16.168 0 26.947 10.779 26.947 26.947s-10.779 26.947-26.947 26.947zM512 70.737c-207.495 0-377.263 167.074-377.263 377.263s169.768 377.263 377.263 377.263 377.263-167.074 377.263-377.263-169.768-377.263-377.263-377.263zM512 771.368c-177.853 0-323.368-145.516-323.368-323.368s145.516-323.368 323.368-323.368 323.368 142.821 323.368 323.368-145.516 323.368-323.368 323.368z" />
<glyph unicode="&#xe932;" glyph-name="close" d="M549.726 448l156.295 156.295c10.779 10.779 10.779 26.947 0 37.726s-26.947 10.779-37.726 0l-156.295-156.295-156.295 156.295c-10.779 10.779-26.947 10.779-37.726 0s-10.779-26.947 0-37.726l156.295-156.295-156.295-156.295c-10.779-10.779-10.779-26.947 0-37.726 5.389-5.389 13.474-8.084 18.863-8.084 8.084 0 13.474 2.695 18.863 8.084l156.295 156.295 156.295-156.295c5.389-5.389 13.474-8.084 18.863-8.084s13.474 2.695 18.863 8.084c10.779 10.779 10.779 26.947 0 37.726l-156.295 156.295z" />
<glyph unicode="&#xe933;" glyph-name="code" d="M199.411 448l118.568 118.568c10.779 10.779 10.779 26.947 0 37.726s-26.947 10.779-37.726 0l-137.432-137.432c-10.779-10.779-10.779-26.947 0-37.726l137.432-137.432c5.389-5.389 13.474-8.084 18.863-8.084s13.474 2.695 18.863 8.084c10.779 10.779 10.779 26.947 0 37.726l-118.568 118.568zM881.179 466.863l-137.432 137.432c-10.779 10.779-26.947 10.779-37.726 0s-10.779-26.947 0-37.726l118.568-118.568-118.568-118.568c-10.779-10.779-10.779-26.947 0-37.726 5.389-5.389 13.474-8.084 18.863-8.084s13.474 2.695 18.863 8.084l137.432 137.432c10.779 10.779 10.779 26.947 0 37.726zM404.211 175.832c-2.695 0-8.084 0-10.779 2.695-13.474 5.389-18.863 21.558-13.474 35.032l215.579 490.442c5.389 13.474 21.558 21.558 35.032 13.474 13.474-5.389 18.863-21.558 13.474-35.032l-215.579-490.442c-2.695-10.779-13.474-16.168-24.253-16.168z" />
<glyph unicode="&#xe934;" glyph-name="coins" d="M665.6 639.326c-110.484 0-223.663-37.726-223.663-107.789v0-234.442c0-70.063 113.179-107.789 223.663-107.789s223.663 37.726 223.663 107.789v237.137c0 70.063-113.179 105.095-223.663 105.095zM495.832 461.474c43.116-24.253 105.095-35.032 169.768-35.032 61.979 0 126.653 10.779 169.768 35.032v-45.811c0-16.168-56.589-53.895-169.768-53.895-110.484 0-169.768 37.726-169.768 53.895v45.811zM665.6 585.432c110.484 0 169.768-37.726 169.768-53.895s-56.589-53.895-169.768-53.895c-110.484 0-169.768 37.726-169.768 53.895s59.284 53.895 169.768 53.895zM665.6 245.895c-110.484 0-169.768 37.726-169.768 53.895v45.811c43.116-24.253 105.095-35.032 169.768-35.032 61.979 0 126.653 10.779 169.768 35.032v-45.811c0-18.863-56.589-53.895-169.768-53.895zM498.526 655.495c-5.389-13.474-18.863-21.558-32.337-18.863-32.337 10.779-70.063 13.474-107.789 13.474-110.484 0-169.768-37.726-169.768-53.895 2.695-16.168 78.147-53.895 191.326-53.895 16.168 0 26.947-10.779 26.947-26.947s-10.779-26.947-26.947-26.947c-61.979 0-140.126 13.474-191.326 37.726v-51.2c2.695-16.168 78.147-51.2 191.326-51.2 16.168 0 26.947-10.779 26.947-26.947s-10.779-26.947-26.947-26.947c-102.4 0-245.221 32.337-245.221 105.095v118.568c0 70.063 113.179 107.789 223.663 107.789 43.116 0 86.232-5.389 123.958-16.168 13.474-2.695 21.558-16.168 16.168-29.642z" />
<glyph unicode="&#xe935;" glyph-name="color-picker" d="M889.263 682.442c0 21.558-10.779 43.116-26.947 59.284l-53.895 56.589c-35.032 35.032-88.926 35.032-121.263 2.695l-150.905-150.905-51.2 51.2c-10.779 10.779-26.947 10.779-37.726 0s-10.779-26.947 0-37.726l280.253-280.253c5.389-5.389 13.474-8.084 18.863-8.084s13.474 2.695 18.863 8.084c10.779 10.779 10.779 26.947 0 37.726l-51.2 51.2 150.905 150.905c16.168 16.168 24.253 37.726 24.253 59.284zM827.284 660.884l-150.905-150.905-102.4 102.4 150.905 150.905c10.779 10.779 32.337 10.779 43.116-2.695l56.589-56.589c8.084-5.389 10.779-13.474 10.779-21.558s-2.695-16.168-8.084-21.558zM460.8 536.926c-10.779 10.779-26.947 10.779-37.726 0l-269.474-269.474c-5.389-5.389-8.084-10.779-8.084-16.168l-10.779-150.905c0-8.084 2.695-16.168 8.084-21.558s10.779-8.084 18.863-8.084c0 0 0 0 2.695 0l150.905 10.779c5.389 0 13.474 2.695 16.168 8.084l269.474 269.474c10.779 10.779 10.779 26.947 0 37.726l-140.126 140.126zM299.116 132.716l-110.484-8.084 8.084 110.484 245.221 245.221 102.4-102.4-245.221-245.221z" />
<glyph unicode="&#xe936;" glyph-name="comment-add" d="M781.474 701.305h-97.011v97.011c0 16.168-10.779 26.947-26.947 26.947v0c-16.168 0-26.947-10.779-26.947-26.947v-97.011h-97.011c-16.168 0-26.947-10.779-26.947-26.947s10.779-26.947 26.947-26.947h97.011v-97.011c0-16.168 10.779-26.947 26.947-26.947v0c16.168 0 26.947 10.779 26.947 26.947v97.011h97.011c16.168 0 26.947 10.779 26.947 26.947 0 13.474-10.779 26.947-26.947 26.947zM161.684 70.737c-5.389 0-8.084 0-10.779 2.695-10.779 5.389-16.168 13.474-16.168 24.253v495.832c0 59.284 48.505 107.789 107.789 107.789h183.242c16.168 0 26.947-10.779 26.947-26.947s-10.779-26.947-26.947-26.947h-183.242c-29.642 0-53.895-24.253-53.895-53.895v-441.937l118.568 91.621c5.389 2.695 10.779 5.389 16.168 5.389h458.105c29.642 0 53.895 24.253 53.895 53.895v296.421c-2.695 13.474 8.084 26.947 24.253 29.642 13.474 2.695 26.947-8.084 29.642-24.253 0-5.389 0-8.084 0-10.779v-291.032c0-59.284-48.505-107.789-107.789-107.789h-450.021l-153.6-118.568c-5.389-2.695-10.779-5.389-16.168-5.389z" />
<glyph unicode="&#xe937;" glyph-name="comment" d="M161.684 70.737c-5.389 0-8.084 0-10.779 2.695-10.779 5.389-16.168 13.474-16.168 24.253v495.832c0 59.284 48.505 107.789 107.789 107.789h538.947c59.284 0 107.789-48.505 107.789-107.789v-291.032c0-59.284-48.505-107.789-107.789-107.789h-450.021l-153.6-118.568c-5.389-2.695-10.779-5.389-16.168-5.389zM242.526 647.411c-29.642 0-53.895-24.253-53.895-53.895v-441.937l118.568 91.621c5.389 2.695 10.779 5.389 16.168 5.389h458.105c29.642 0 53.895 24.253 53.895 53.895v291.032c0 29.642-24.253 53.895-53.895 53.895h-538.947z" />
<glyph unicode="&#xe938;" glyph-name="computer-network" d="M296.421 340.211h188.632v-78.147c0-16.168 10.779-26.947 26.947-26.947s26.947 10.779 26.947 26.947v78.147h188.632c45.811 0 80.842 35.032 80.842 80.842v269.474c0 45.811-35.032 80.842-80.842 80.842h-431.158c-45.811 0-80.842-35.032-80.842-80.842v-269.474c0-45.811 35.032-80.842 80.842-80.842zM269.474 690.526c0 16.168 10.779 26.947 26.947 26.947h431.158c16.168 0 26.947-10.779 26.947-26.947v-269.474c0-16.168-10.779-26.947-26.947-26.947h-431.158c-16.168 0-26.947 10.779-26.947 26.947v269.474zM862.316 181.221h-700.632c-16.168 0-26.947-10.779-26.947-26.947s10.779-26.947 26.947-26.947h700.632c16.168 0 26.947 10.779 26.947 26.947s-10.779 26.947-26.947 26.947z" />
<glyph unicode="&#xe939;" glyph-name="connection-offline" d="M172.463 650.105c-2.695-2.695-8.084-2.695-10.779-2.695-10.779 0-18.863 5.389-24.253 16.168-5.389 13.474 0 29.642 13.474 35.032 80.842 40.421 167.074 59.284 253.305 59.284 88.926 0 175.158-18.863 253.305-59.284 13.474-5.389 18.863-21.558 13.474-35.032s-21.558-18.863-35.032-13.474c-148.211 72.758-317.979 72.758-463.495 0zM582.063 574.653c-113.179 53.895-242.526 53.895-358.4 0-13.474-5.389-18.863-21.558-13.474-35.032s21.558-18.863 35.032-13.474c99.705 48.505 212.884 48.505 312.589 0 2.695-2.695 8.084-2.695 10.779-2.695 10.779 0 18.863 5.389 24.253 16.168 8.084 10.779 2.695 26.947-10.779 35.032zM506.611 450.695c-67.368 29.642-137.432 29.642-204.8 0-13.474-5.389-18.863-21.558-13.474-35.032 5.389-10.779 13.474-16.168 24.253-16.168 2.695 0 8.084 0 10.779 2.695 53.895 21.558 110.484 21.558 161.684 0 13.474-5.389 29.642 0 35.032 13.474s0 26.947-13.474 35.032zM423.074 318.653c-10.779 10.779-26.947 10.779-37.726 0-2.695-2.695-5.389-5.389-5.389-8.084-2.695-2.695-2.695-5.389-2.695-10.779 0-8.084 2.695-13.474 8.084-18.863s10.779-8.084 18.863-8.084c8.084 0 13.474 2.695 18.863 8.084 2.695 2.695 5.389 5.389 5.389 8.084 2.695 2.695 2.695 5.389 2.695 10.779s0 8.084-2.695 10.779c-2.695 2.695-2.695 8.084-5.389 8.084zM778.779 286.316l102.4 102.4c10.779 10.779 10.779 26.947 0 37.726s-26.947 10.779-37.726 0l-102.4-102.4-102.4 102.4c-10.779 10.779-26.947 10.779-37.726 0s-10.779-26.947 0-37.726l102.4-102.4-102.4-102.4c-10.779-10.779-10.779-26.947 0-37.726 5.389-5.389 13.474-8.084 18.863-8.084s13.474 2.695 18.863 8.084l102.4 102.4 102.4-102.4c5.389-5.389 13.474-8.084 18.863-8.084s13.474 2.695 18.863 8.084c10.779 10.779 10.779 26.947 0 37.726l-102.4 102.4z" />
<glyph unicode="&#xe93a;" glyph-name="connection-slow" d="M862.316 138.105h-336.842c-10.779 0-18.863 5.389-24.253 13.474s-5.389 18.863 0 26.947l169.768 285.642c5.389 8.084 13.474 13.474 24.253 13.474v0c10.779 0 18.863-5.389 24.253-13.474l167.074-285.642c5.389-8.084 5.389-18.863 0-26.947s-13.474-13.474-24.253-13.474zM571.284 192h245.221l-121.263 207.495-123.958-207.495zM172.463 650.105c145.516 72.758 315.284 72.758 460.8 0 13.474-5.389 29.642 0 35.032 13.474s0 29.642-13.474 35.032c-80.842 40.421-167.074 59.284-253.305 59.284-88.926 0-175.158-18.863-253.305-59.284-13.474-5.389-18.863-21.558-10.779-35.032 5.389-10.779 13.474-16.168 24.253-16.168 2.695 0 8.084 0 10.779 2.695zM595.537 536.926c5.389 13.474 0 29.642-13.474 35.032-113.179 53.895-242.526 53.895-358.4 0-13.474-5.389-18.863-21.558-13.474-35.032s21.558-18.863 35.032-13.474c99.705 48.505 212.884 48.505 312.589 0 2.695-2.695 8.084-2.695 10.779-2.695 10.779 2.695 21.558 8.084 26.947 16.168zM320.674 399.495c53.895 21.558 110.484 21.558 161.684 0 13.474-5.389 29.642 0 35.032 13.474s0 29.642-13.474 35.032c-67.368 29.642-137.432 29.642-204.8 0-13.474-5.389-18.863-21.558-13.474-35.032 5.389-10.779 13.474-16.168 24.253-16.168 5.389 0 8.084 2.695 10.779 2.695zM423.074 280.926c2.695 2.695 5.389 5.389 5.389 8.084 2.695 2.695 2.695 5.389 2.695 10.779s0 8.084-2.695 10.779c0 2.695-2.695 5.389-5.389 8.084-10.779 10.779-26.947 10.779-37.726 0-2.695-2.695-5.389-5.389-5.389-8.084-2.695-2.695-2.695-5.389-2.695-10.779 0-8.084 2.695-13.474 8.084-18.863s10.779-8.084 18.863-8.084c5.389 0 13.474 2.695 18.863 8.084z" />
<glyph unicode="&#xe93b;" glyph-name="connection" d="M808.421 577.347c-5.389 0-8.084 0-13.474 2.695-88.926 45.811-185.937 67.368-282.947 67.368-99.705 0-194.021-24.253-282.947-67.368-13.474-5.389-29.642-2.695-35.032 10.779s-2.695 29.642 10.779 35.032c97.011 53.895 199.411 78.147 307.2 78.147s210.189-24.253 309.895-75.453c13.474-5.389 18.863-24.253 10.779-35.032-5.389-10.779-13.474-16.168-24.253-16.168zM741.053 464.168c5.389 13.474 0 29.642-13.474 35.032-137.432 67.368-293.726 67.368-431.158 0-13.474-5.389-18.863-21.558-13.474-35.032s21.558-18.863 35.032-13.474c123.958 59.284 261.389 59.284 385.347 0 2.695-2.695 8.084-2.695 10.779-2.695 13.474 2.695 21.558 8.084 26.947 16.168zM409.6 324.042c67.368 29.642 137.432 29.642 202.105 0 13.474-5.389 29.642 0 35.032 13.474s0 29.642-13.474 35.032c-80.842 35.032-167.074 35.032-245.221 0-13.474-5.389-18.863-21.558-13.474-35.032 5.389-10.779 13.474-16.168 24.253-16.168 5.389 0 8.084 0 10.779 2.695zM530.863 200.084c5.389 5.389 8.084 10.779 8.084 18.863s-2.695 13.474-8.084 18.863c-10.779 10.779-29.642 10.779-37.726 0-5.389-5.389-8.084-10.779-8.084-18.863s2.695-13.474 8.084-18.863c5.389-5.389 10.779-8.084 18.863-8.084s13.474 2.695 18.863 8.084z" />
<glyph unicode="&#xe93c;" glyph-name="copy" d="M768 272.842h-323.368c-45.811 0-80.842 35.032-80.842 80.842v377.263c0 45.811 35.032 80.842 80.842 80.842h323.368c45.811 0 80.842-35.032 80.842-80.842v-377.263c0-45.811-35.032-80.842-80.842-80.842zM444.632 757.895c-16.168 0-26.947-10.779-26.947-26.947v-377.263c0-16.168 10.779-26.947 26.947-26.947h323.368c16.168 0 26.947 10.779 26.947 26.947v377.263c0 16.168-10.779 26.947-26.947 26.947h-323.368zM579.368 84.211h-323.368c-45.811 0-80.842 35.032-80.842 80.842v377.263c0 45.811 35.032 80.842 80.842 80.842 16.168 0 26.947-10.779 26.947-26.947s-10.779-26.947-26.947-26.947-26.947-10.779-26.947-26.947v-377.263c0-16.168 10.779-26.947 26.947-26.947h323.368c16.168 0 26.947 10.779 26.947 26.947s10.779 26.947 26.947 26.947 26.947-10.779 26.947-26.947c0-45.811-35.032-80.842-80.842-80.842z" />
<glyph unicode="&#xe93d;" glyph-name="cut" d="M619.789 501.895c8.084 0 13.474 2.695 18.863 8.084l215.579 215.579c10.779 10.779 10.779 26.947 0 37.726s-26.947 10.779-37.726 0l-215.579-215.579c-10.779-10.779-10.779-26.947 0-37.726 5.389-5.389 10.779-8.084 18.863-8.084zM455.411 569.263c18.863 26.947 29.642 59.284 29.642 94.316 0 88.926-72.758 161.684-161.684 161.684s-161.684-72.758-161.684-161.684 72.758-161.684 161.684-161.684c35.032 0 67.368 10.779 94.316 29.642l83.537-83.537-83.537-83.537c-26.947 18.863-59.284 29.642-94.316 29.642-88.926 0-161.684-72.758-161.684-161.684s72.758-161.684 161.684-161.684 161.684 72.758 161.684 161.684c0 35.032-10.779 67.368-29.642 94.316l83.537 83.537 277.558-277.558c5.389-5.389 13.474-8.084 18.863-8.084s13.474 2.695 18.863 8.084c10.779 10.779 10.779 26.947 0 37.726l-398.821 398.821zM323.368 124.632c-59.284 0-107.789 48.505-107.789 107.789s48.505 107.789 107.789 107.789 107.789-48.505 107.789-107.789-48.505-107.789-107.789-107.789zM323.368 555.789c-59.284 0-107.789 48.505-107.789 107.789s48.505 107.789 107.789 107.789 107.789-48.505 107.789-107.789-48.505-107.789-107.789-107.789z" />
<glyph unicode="&#xe93e;" glyph-name="dashboard-grid" d="M377.263 70.737h-161.684c-45.811 0-80.842 35.032-80.842 80.842v161.684c0 45.811 35.032 80.842 80.842 80.842h161.684c45.811 0 80.842-35.032 80.842-80.842v-161.684c0-45.811-35.032-80.842-80.842-80.842zM215.579 340.211c-16.168 0-26.947-10.779-26.947-26.947v-161.684c0-16.168 10.779-26.947 26.947-26.947h161.684c16.168 0 26.947 10.779 26.947 26.947v161.684c0 16.168-10.779 26.947-26.947 26.947h-161.684zM808.421 70.737h-161.684c-45.811 0-80.842 35.032-80.842 80.842v161.684c0 45.811 35.032 80.842 80.842 80.842h161.684c45.811 0 80.842-35.032 80.842-80.842v-161.684c0-45.811-35.032-80.842-80.842-80.842zM646.737 340.211c-16.168 0-26.947-10.779-26.947-26.947v-161.684c0-16.168 10.779-26.947 26.947-26.947h161.684c16.168 0 26.947 10.779 26.947 26.947v161.684c0 16.168-10.779 26.947-26.947 26.947h-161.684zM808.421 501.895h-592.842c-45.811 0-80.842 35.032-80.842 80.842v161.684c0 45.811 35.032 80.842 80.842 80.842h592.842c45.811 0 80.842-35.032 80.842-80.842v-161.684c0-45.811-35.032-80.842-80.842-80.842zM215.579 771.368c-16.168 0-26.947-10.779-26.947-26.947v-161.684c0-16.168 10.779-26.947 26.947-26.947h592.842c16.168 0 26.947 10.779 26.947 26.947v161.684c0 16.168-10.779 26.947-26.947 26.947h-592.842z" />
<glyph unicode="&#xe93f;" glyph-name="dashboard" d="M377.263 70.737h-161.684c-45.811 0-80.842 35.032-80.842 80.842v592.842c0 45.811 35.032 80.842 80.842 80.842h161.684c45.811 0 80.842-35.032 80.842-80.842v-592.842c0-45.811-35.032-80.842-80.842-80.842zM215.579 771.368c-16.168 0-26.947-10.779-26.947-26.947v-592.842c0-16.168 10.779-26.947 26.947-26.947h161.684c16.168 0 26.947 10.779 26.947 26.947v592.842c0 16.168-10.779 26.947-26.947 26.947h-161.684zM727.579 501.895c-88.926 0-161.684 72.758-161.684 161.684s72.758 161.684 161.684 161.684 161.684-72.758 161.684-161.684-72.758-161.684-161.684-161.684zM727.579 771.368c-59.284 0-107.789-48.505-107.789-107.789s48.505-107.789 107.789-107.789 107.789 48.505 107.789 107.789-48.505 107.789-107.789 107.789zM727.579 70.737c-88.926 0-161.684 72.758-161.684 161.684s72.758 161.684 161.684 161.684 161.684-72.758 161.684-161.684-72.758-161.684-161.684-161.684zM727.579 340.211c-59.284 0-107.789-48.505-107.789-107.789s48.505-107.789 107.789-107.789 107.789 48.505 107.789 107.789-48.505 107.789-107.789 107.789z" />
<glyph unicode="&#xe940;" glyph-name="data-lake" d="M557.811 474.947h-51.2l53.895 123.958c5.389 13.474 0 29.642-13.474 35.032s-29.642 0-35.032-13.474l-72.758-161.684c-2.695-8.084-2.695-18.863 2.695-26.947s16.168-10.779 24.253-10.779h51.2l-56.589-126.653c-5.389-13.474 0-29.642 13.474-35.032 2.695 0 5.389 0 10.779 0 10.779 0 18.863 5.389 24.253 16.168l72.758 164.379c2.695 8.084 2.695 18.863-2.695 26.947s-10.779 8.084-21.558 8.084zM881.179 620.463c-8.084 18.863-24.253 32.337-43.116 40.421l-13.474 5.389v13.474c0 45.811-35.032 80.842-80.842 80.842h-177.853l-167.074 61.979c-40.421 16.168-86.232-5.389-99.705-45.811l-5.389-13.474h-13.474c-45.811 0-80.842-35.032-80.842-80.842v-180.547l-61.979-167.074c-8.084-18.863-5.389-40.421 2.695-59.284s24.253-32.337 43.116-40.421l13.474-5.389v-13.474c0-45.811 35.032-80.842 80.842-80.842h180.547l167.074-61.979c8.084-2.695 18.863-5.389 26.947-5.389 32.337 0 61.979 18.863 72.758 51.2l5.389 13.474h13.474c45.811 0 80.842 35.032 80.842 80.842v180.547l61.979 167.074c5.389 18.863 5.389 40.421-5.389 59.284zM379.958 768.674l26.947-10.779h-56.589c8.084 10.779 18.863 16.168 29.642 10.779zM191.326 297.095c-2.695 5.389-2.695 13.474 0 18.863v0l10.779 26.947v-56.589c-5.389 2.695-8.084 8.084-10.779 10.779zM644.042 127.326l-26.947 10.779h56.589c-8.084-10.779-18.863-16.168-29.642-10.779zM770.695 216.253c0-16.168-10.779-26.947-26.947-26.947h-463.495c-16.168 0-26.947 10.779-26.947 26.947v463.495c0 16.168 10.779 26.947 26.947 26.947h463.495c16.168 0 26.947-10.779 26.947-26.947v-282.947c0 0 0-180.547 0-180.547zM832.674 580.042l-10.779-26.947v56.589c2.695-2.695 8.084-5.389 8.084-10.779 5.389-8.084 5.389-13.474 2.695-18.863z" />
<glyph unicode="&#xe941;" glyph-name="data-mapping" d="M619.789 119.242c-5.389 0-8.084 0-13.474 2.695l-215.579 121.263c-8.084 5.389-13.474 13.474-13.474 24.253v242.526c0 10.779 5.389 18.863 13.474 24.253l215.579 121.263c8.084 5.389 18.863 5.389 26.947 0l215.579-121.263c8.084-5.389 13.474-13.474 13.474-24.253v-242.526c0-10.779-5.389-18.863-13.474-24.253l-215.579-121.263c-2.695-2.695-8.084-2.695-13.474-2.695zM431.158 280.926l188.632-105.095 188.632 105.095v210.189l-188.632 105.095-188.632-105.095v-210.189zM838.063 267.453v0 0zM509.305 663.579c-5.389 0-8.084 0-13.474 2.695l-10.779 8.084c-13.474 8.084-18.863 24.253-10.779 37.726s24.253 18.863 37.726 10.779l10.779-5.389c13.474-8.084 18.863-24.253 10.779-37.726-5.389-10.779-13.474-16.168-24.253-16.168zM414.989 717.474c-2.695 0-8.084 0-10.779 2.695-13.474-5.389-26.947-2.695-35.032 10.779s-2.695 29.642 10.779 37.726l10.779 5.389c8.084 5.389 18.863 5.389 26.947 0l10.779-5.389c13.474-8.084 18.863-24.253 10.779-37.726-5.389-8.084-13.474-13.474-24.253-13.474zM285.642 658.189c-10.779 0-18.863 5.389-24.253 13.474-8.084 13.474-2.695 29.642 10.779 37.726l21.558 10.779c13.474 8.084 29.642 2.695 37.726-10.779s2.695-29.642-10.779-37.726l-24.253-10.779c-2.695-2.695-8.084-2.695-10.779-2.695zM185.937 588.126c-16.168 0-26.947 10.779-26.947 26.947v13.474c0 10.779 5.389 18.863 13.474 24.253l10.779 5.389c16.168 8.084 32.337 5.389 37.726-8.084 8.084-13.474 2.695-26.947-8.084-35.032 0-16.168-10.779-26.947-26.947-26.947zM185.937 469.558c-16.168 0-26.947 10.779-26.947 26.947v24.253c0 16.168 10.779 26.947 26.947 26.947s26.947-10.779 26.947-26.947v-24.253c0-16.168-10.779-26.947-26.947-26.947zM199.411 353.684c-5.389 0-8.084 0-13.474 2.695l-10.779 5.389c-8.084 5.389-13.474 13.474-13.474 24.253v13.474c0 16.168 10.779 26.947 26.947 26.947 13.474 0 26.947-10.779 26.947-24.253 10.779-8.084 13.474-21.558 5.389-35.032-2.695-8.084-13.474-13.474-21.558-13.474zM296.421 299.789c-5.389 0-8.084 0-13.474 2.695l-10.779 5.389c-13.474 8.084-18.863 24.253-10.779 37.726s24.253 18.863 37.726 10.779l10.779-5.389c13.474-8.084 18.863-24.253 10.779-37.726-5.389-8.084-16.168-13.474-24.253-13.474z" />
<glyph unicode="&#xe942;" glyph-name="database" d="M512 825.263c-142.821 0-296.421-48.505-296.421-134.737 0-80.842 0-242.526 0-320.674 0 0 0-161.684 0-161.684 0-88.926 153.6-134.737 296.421-134.737s296.421 48.505 296.421 134.737v161.684c0 80.842 0 242.526 0 320.674 0 86.232-153.6 134.737-296.421 134.737zM754.526 448v-80.842c0-32.337-94.316-80.842-242.526-80.842s-242.526 48.505-242.526 80.842v80.842c137.432-75.453 347.621-75.453 485.053 0zM754.526 528.842c0-32.337-94.316-80.842-242.526-80.842s-242.526 48.505-242.526 80.842v80.842c115.874-72.758 369.179-72.758 485.053 0v-80.842zM512 771.368c148.211 0 242.526-48.505 242.526-80.842s-94.316-80.842-242.526-80.842c-148.211 0-242.526 48.505-242.526 80.842s94.316 80.842 242.526 80.842zM754.526 205.474c0-32.337-94.316-80.842-242.526-80.842s-242.526 48.505-242.526 80.842v80.842c134.737-75.453 350.316-75.453 485.053 0v-80.842z" />
<glyph unicode="&#xe943;" glyph-name="department" d="M778.779 412.968c-2.695 35.032-10.779 70.063-26.947 102.4-5.389 8.084-13.474 13.474-21.558 13.474-16.168 0-29.642-10.779-29.642-26.947 0-5.389 2.695-10.779 5.389-13.474 10.779-21.558 16.168-43.116 18.863-67.368-88.926 0-158.989-72.758-158.989-161.684s72.758-161.684 161.684-161.684 161.684 72.758 161.684 161.684c0 72.758-45.811 132.042-110.484 153.6zM727.579 151.579c-59.284 0-107.789 48.505-107.789 107.789s48.505 107.789 107.789 107.789 107.789-48.505 107.789-107.789-48.505-107.789-107.789-107.789zM509.305 181.221c-24.253 0-45.811 5.389-67.368 10.779 10.779 21.558 16.168 43.116 16.168 67.368 0 88.926-72.758 161.684-161.684 161.684s-161.684-72.758-161.684-161.684 72.758-161.684 161.684-161.684c45.811 0 86.232 18.863 115.874 48.505 32.337-13.474 64.674-18.863 99.705-18.863v0c13.474 0 26.947 10.779 26.947 26.947-2.695 13.474-13.474 24.253-29.642 26.947zM296.421 151.579c-59.284 0-107.789 48.505-107.789 107.789s48.505 107.789 107.789 107.789 107.789-48.505 107.789-107.789-48.505-107.789-107.789-107.789zM288.337 491.116c5.389-2.695 8.084-2.695 13.474-2.695 8.084 0 18.863 5.389 24.253 13.474 10.779 21.558 26.947 40.421 45.811 53.895 26.947-48.505 80.842-80.842 140.126-80.842 88.926 0 161.684 72.758 161.684 161.684s-72.758 161.684-161.684 161.684-161.684-72.758-161.684-161.684c0-8.084 0-18.863 2.695-26.947-29.642-21.558-53.895-51.2-72.758-80.842-8.084-13.474-5.389-29.642 8.084-37.726zM512 744.421c59.284 0 107.789-48.505 107.789-107.789s-48.505-107.789-107.789-107.789-107.789 48.505-107.789 107.789 48.505 107.789 107.789 107.789z" />
<glyph unicode="&#xe944;" glyph-name="details" d="M862.316 636.632h-458.105c-16.168 0-26.947 10.779-26.947 26.947s10.779 26.947 26.947 26.947h458.105c16.168 0 26.947-10.779 26.947-26.947s-10.779-26.947-26.947-26.947zM296.421 663.579c0 45.811-35.032 80.842-80.842 80.842s-80.842-35.032-80.842-80.842 35.032-80.842 80.842-80.842 80.842 35.032 80.842 80.842zM242.526 663.579c0-16.168-10.779-26.947-26.947-26.947s-26.947 10.779-26.947 26.947 10.779 26.947 26.947 26.947 26.947-10.779 26.947-26.947zM889.263 448c0 16.168-10.779 26.947-26.947 26.947h-458.105c-16.168 0-26.947-10.779-26.947-26.947s10.779-26.947 26.947-26.947h458.105c16.168 0 26.947 10.779 26.947 26.947zM296.421 448c0 45.811-35.032 80.842-80.842 80.842s-80.842-35.032-80.842-80.842 35.032-80.842 80.842-80.842 80.842 35.032 80.842 80.842zM242.526 448c0-16.168-10.779-26.947-26.947-26.947s-26.947 10.779-26.947 26.947 10.779 26.947 26.947 26.947 26.947-10.779 26.947-26.947zM889.263 232.421c0 16.168-10.779 26.947-26.947 26.947h-458.105c-16.168 0-26.947-10.779-26.947-26.947s10.779-26.947 26.947-26.947h458.105c16.168 0 26.947 10.779 26.947 26.947zM296.421 232.421c0 45.811-35.032 80.842-80.842 80.842s-80.842-35.032-80.842-80.842 35.032-80.842 80.842-80.842 80.842 35.032 80.842 80.842zM242.526 232.421c0-16.168-10.779-26.947-26.947-26.947s-26.947 10.779-26.947 26.947 10.779 26.947 26.947 26.947 26.947-10.779 26.947-26.947z" />
<glyph unicode="&#xe945;" glyph-name="display-block" d="M808.421 286.316h-592.842c-45.811 0-80.842 35.032-80.842 80.842v161.684c0 45.811 35.032 80.842 80.842 80.842h592.842c45.811 0 80.842-35.032 80.842-80.842v-161.684c0-45.811-35.032-80.842-80.842-80.842zM215.579 555.789c-16.168 0-26.947-10.779-26.947-26.947v-161.684c0-16.168 10.779-26.947 26.947-26.947h592.842c16.168 0 26.947 10.779 26.947 26.947v161.684c0 16.168-10.779 26.947-26.947 26.947h-592.842zM862.316 771.368h-700.632c-16.168 0-26.947 10.779-26.947 26.947s10.779 26.947 26.947 26.947h700.632c16.168 0 26.947-10.779 26.947-26.947s-10.779-26.947-26.947-26.947zM862.316 70.737h-700.632c-16.168 0-26.947 10.779-26.947 26.947s10.779 26.947 26.947 26.947h700.632c16.168 0 26.947-10.779 26.947-26.947s-10.779-26.947-26.947-26.947z" />
<glyph unicode="&#xe946;" glyph-name="display-flex" d="M377.263 205.474h-161.684c-45.811 0-80.842 35.032-80.842 80.842v323.368c0 45.811 35.032 80.842 80.842 80.842h161.684c45.811 0 80.842-35.032 80.842-80.842v-323.368c0-45.811-35.032-80.842-80.842-80.842zM215.579 636.632c-16.168 0-26.947-10.779-26.947-26.947v-323.368c0-16.168 10.779-26.947 26.947-26.947h161.684c16.168 0 26.947 10.779 26.947 26.947v323.368c0 16.168-10.779 26.947-26.947 26.947h-161.684zM808.421 205.474h-161.684c-45.811 0-80.842 35.032-80.842 80.842v323.368c0 45.811 35.032 80.842 80.842 80.842h161.684c45.811 0 80.842-35.032 80.842-80.842v-323.368c0-45.811-35.032-80.842-80.842-80.842zM646.737 636.632c-16.168 0-26.947-10.779-26.947-26.947v-323.368c0-16.168 10.779-26.947 26.947-26.947h161.684c16.168 0 26.947 10.779 26.947 26.947v323.368c0 16.168-10.779 26.947-26.947 26.947h-161.684zM862.316 771.368h-700.632c-16.168 0-26.947 10.779-26.947 26.947s10.779 26.947 26.947 26.947h700.632c16.168 0 26.947-10.779 26.947-26.947s-10.779-26.947-26.947-26.947zM862.316 70.737h-700.632c-16.168 0-26.947 10.779-26.947 26.947s10.779 26.947 26.947 26.947h700.632c16.168 0 26.947-10.779 26.947-26.947s-10.779-26.947-26.947-26.947z" />
<glyph unicode="&#xe947;" glyph-name="display-grid" d="M377.263 501.895h-161.684c-45.811 0-80.842 35.032-80.842 80.842v161.684c0 45.811 35.032 80.842 80.842 80.842h161.684c45.811 0 80.842-35.032 80.842-80.842v-161.684c0-45.811-35.032-80.842-80.842-80.842zM215.579 771.368c-16.168 0-26.947-10.779-26.947-26.947v-161.684c0-16.168 10.779-26.947 26.947-26.947h161.684c16.168 0 26.947 10.779 26.947 26.947v161.684c0 16.168-10.779 26.947-26.947 26.947h-161.684zM808.421 501.895h-161.684c-45.811 0-80.842 35.032-80.842 80.842v161.684c0 45.811 35.032 80.842 80.842 80.842h161.684c45.811 0 80.842-35.032 80.842-80.842v-161.684c0-45.811-35.032-80.842-80.842-80.842zM646.737 771.368c-16.168 0-26.947-10.779-26.947-26.947v-161.684c0-16.168 10.779-26.947 26.947-26.947h161.684c16.168 0 26.947 10.779 26.947 26.947v161.684c0 16.168-10.779 26.947-26.947 26.947h-161.684zM377.263 70.737h-161.684c-45.811 0-80.842 35.032-80.842 80.842v161.684c0 45.811 35.032 80.842 80.842 80.842h161.684c45.811 0 80.842-35.032 80.842-80.842v-161.684c0-45.811-35.032-80.842-80.842-80.842zM215.579 340.211c-16.168 0-26.947-10.779-26.947-26.947v-161.684c0-16.168 10.779-26.947 26.947-26.947h161.684c16.168 0 26.947 10.779 26.947 26.947v161.684c0 16.168-10.779 26.947-26.947 26.947h-161.684zM808.421 70.737h-161.684c-45.811 0-80.842 35.032-80.842 80.842v161.684c0 45.811 35.032 80.842 80.842 80.842h161.684c45.811 0 80.842-35.032 80.842-80.842v-161.684c0-45.811-35.032-80.842-80.842-80.842zM646.737 340.211c-16.168 0-26.947-10.779-26.947-26.947v-161.684c0-16.168 10.779-26.947 26.947-26.947h161.684c16.168 0 26.947 10.779 26.947 26.947v161.684c0 16.168-10.779 26.947-26.947 26.947h-161.684z" />
<glyph unicode="&#xe948;" glyph-name="display-inline-block" d="M592.842 286.316h-161.684c-45.811 0-80.842 35.032-80.842 80.842v161.684c0 45.811 35.032 80.842 80.842 80.842h161.684c45.811 0 80.842-35.032 80.842-80.842v-161.684c0-45.811-35.032-80.842-80.842-80.842zM431.158 555.789c-16.168 0-26.947-10.779-26.947-26.947v-161.684c0-16.168 10.779-26.947 26.947-26.947h161.684c16.168 0 26.947 10.779 26.947 26.947v161.684c0 16.168-10.779 26.947-26.947 26.947h-161.684zM161.684 70.737c-16.168 0-26.947 10.779-26.947 26.947v700.632c0 16.168 10.779 26.947 26.947 26.947s26.947-10.779 26.947-26.947v-700.632c0-16.168-10.779-26.947-26.947-26.947zM862.316 70.737c-16.168 0-26.947 10.779-26.947 26.947v700.632c0 16.168 10.779 26.947 26.947 26.947s26.947-10.779 26.947-26.947v-700.632c0-16.168-10.779-26.947-26.947-26.947z" />
<glyph unicode="&#xe949;" glyph-name="display-inline" d="M161.684 70.737c-16.168 0-26.947 10.779-26.947 26.947v700.632c0 16.168 10.779 26.947 26.947 26.947s26.947-10.779 26.947-26.947v-700.632c0-16.168-10.779-26.947-26.947-26.947zM862.316 70.737c-16.168 0-26.947 10.779-26.947 26.947v700.632c0 16.168 10.779 26.947 26.947 26.947s26.947-10.779 26.947-26.947v-700.632c0-16.168-10.779-26.947-26.947-26.947zM622.484 267.453l-29.642 80.842h-161.684l-29.642-80.842h-51.2l134.737 361.095h53.895l134.737-361.095h-51.2zM447.326 394.105h129.347l-64.674 177.853-64.674-177.853z" />
<glyph unicode="&#xe94a;" glyph-name="distribute-horizontal" d="M512 286.316c-88.926 0-161.684 72.758-161.684 161.684s72.758 161.684 161.684 161.684 161.684-72.758 161.684-161.684-72.758-161.684-161.684-161.684zM512 555.789c-59.284 0-107.789-48.505-107.789-107.789s48.505-107.789 107.789-107.789 107.789 48.505 107.789 107.789-48.505 107.789-107.789 107.789zM862.316 297.095c-2.695 0-8.084 0-10.779 2.695-59.284 26.947-97.011 83.537-97.011 148.211s37.726 121.263 97.011 148.211c13.474 5.389 29.642 0 35.032-13.474s0-29.642-13.474-35.032c-40.421-18.863-64.674-56.589-64.674-99.705s24.253-80.842 64.674-99.705c13.474-5.389 18.863-21.558 13.474-35.032-2.695-10.779-13.474-16.168-24.253-16.168zM161.684 297.095c-10.779 0-21.558 5.389-24.253 16.168-5.389 13.474 0 29.642 13.474 35.032 40.421 18.863 64.674 56.589 64.674 99.705s-24.253 80.842-64.674 99.705c-13.474 5.389-18.863 21.558-13.474 35.032s21.558 18.863 35.032 13.474c59.284-26.947 97.011-83.537 97.011-148.211s-37.726-121.263-97.011-148.211c-2.695-2.695-8.084-2.695-10.779-2.695z" />
<glyph unicode="&#xe94b;" glyph-name="distribute-vertical" d="M512 286.316c-88.926 0-161.684 72.758-161.684 161.684s72.758 161.684 161.684 161.684 161.684-72.758 161.684-161.684-72.758-161.684-161.684-161.684zM512 555.789c-59.284 0-107.789-48.505-107.789-107.789s48.505-107.789 107.789-107.789 107.789 48.505 107.789 107.789-48.505 107.789-107.789 107.789zM635.958 70.737c-10.779 0-21.558 5.389-24.253 16.168-18.863 40.421-56.589 64.674-99.705 64.674s-80.842-24.253-99.705-64.674c-5.389-13.474-21.558-18.863-35.032-13.474s-18.863 21.558-13.474 35.032c26.947 59.284 83.537 97.011 148.211 97.011s121.263-37.726 148.211-97.011c5.389-13.474 0-29.642-13.474-35.032-5.389-2.695-8.084-2.695-10.779-2.695zM512 690.526c-64.674 0-121.263 37.726-148.211 97.011-5.389 13.474 0 29.642 13.474 35.032s29.642 0 35.032-13.474c18.863-40.421 56.589-64.674 99.705-64.674s80.842 24.253 99.705 64.674c5.389 13.474 21.558 18.863 35.032 13.474s18.863-21.558 13.474-35.032c-26.947-59.284-83.537-97.011-148.211-97.011z" />
<glyph unicode="&#xe94c;" glyph-name="dock" d="M673.684 205.474h-323.368c-45.811 0-80.842 35.032-80.842 80.842v323.368c0 45.811 35.032 80.842 80.842 80.842h323.368c45.811 0 80.842-35.032 80.842-80.842v-323.368c0-45.811-35.032-80.842-80.842-80.842zM350.316 636.632c-16.168 0-26.947-10.779-26.947-26.947v-323.368c0-16.168 10.779-26.947 26.947-26.947h323.368c16.168 0 26.947 10.779 26.947 26.947v323.368c0 16.168-10.779 26.947-26.947 26.947h-323.368zM161.684 272.842c-16.168 0-26.947 10.779-26.947 26.947v296.421c0 16.168 10.779 26.947 26.947 26.947s26.947-10.779 26.947-26.947v-296.421c0-16.168-10.779-26.947-26.947-26.947zM862.316 272.842c-16.168 0-26.947 10.779-26.947 26.947v296.421c0 16.168 10.779 26.947 26.947 26.947s26.947-10.779 26.947-26.947v-296.421c0-16.168-10.779-26.947-26.947-26.947z" />
<glyph unicode="&#xe94d;" glyph-name="domain" d="M512 825.263c-207.495 0-377.263-169.768-377.263-377.263s169.768-377.263 377.263-377.263 377.263 169.768 377.263 377.263-169.768 377.263-377.263 377.263zM821.895 542.316c-45.811 26.947-107.789 45.811-175.158 56.589 0 0-2.695 0-2.695 0-43.116 8.084-88.926 10.779-132.042 10.779-32.337 0-61.979-2.695-94.316-5.389 21.558 105.095 61.979 167.074 94.316 167.074 26.947 0 56.589-43.116 78.147-107.789 5.389-13.474 18.863-21.558 35.032-18.863 13.474 5.389 21.558 18.863 18.863 35.032-10.779 29.642-21.558 56.589-35.032 78.147 99.705-32.337 180.547-113.179 212.884-215.579zM619.789 448c0-35.032-2.695-67.368-5.389-102.4-64.674-8.084-137.432-8.084-202.105 0-5.389 35.032-8.084 67.368-8.084 102.4 0 37.726 2.695 70.063 5.389 102.4 32.337 2.695 67.368 5.389 102.4 5.389 37.726 0 70.063-2.695 102.4-5.389 2.695-32.337 5.389-67.368 5.389-102.4zM417.684 757.895c-26.947-45.811-45.811-107.789-56.589-175.158 0 0 0-2.695 0-2.695-8.084-43.116-10.779-88.926-10.779-132.042 0-32.337 2.695-61.979 5.389-94.316-107.789 24.253-167.074 64.674-167.074 94.316 0 26.947 45.811 59.284 115.874 80.842 13.474 5.389 21.558 18.863 18.863 32.337-5.389 13.474-18.863 21.558-32.337 18.863-35.032-10.779-61.979-21.558-86.232-35.032 29.642 99.705 110.484 180.547 212.884 212.884zM202.105 353.684c43.116-26.947 105.095-45.811 180.547-56.589 40.421-5.389 86.232-8.084 129.347-8.084 32.337 0 61.979 2.695 94.316 5.389-21.558-107.789-61.979-167.074-94.316-167.074-26.947 0-59.284 45.811-80.842 115.874-5.389 13.474-18.863 21.558-32.337 18.863-13.474-5.389-21.558-18.863-18.863-32.337 10.779-35.032 21.558-61.979 35.032-86.232-99.705 26.947-180.547 107.789-212.884 210.189zM606.316 138.105c26.947 43.116 45.811 105.095 56.589 180.547 5.389 40.421 8.084 86.232 8.084 129.347 0 32.337-2.695 61.979-5.389 94.316 105.095-21.558 167.074-61.979 167.074-94.316 0-26.947-43.116-56.589-107.789-78.147-13.474-5.389-21.558-18.863-18.863-35.032 2.695-10.779 13.474-18.863 26.947-18.863 2.695 0 5.389 0 8.084 0 29.642 10.779 56.589 21.558 78.147 35.032-29.642-99.705-110.484-180.547-212.884-212.884z" />
<glyph unicode="&#xe94e;" glyph-name="double-check" d="M503.916 205.474c-8.084 0-13.474 2.695-18.863 8.084l-175.158 177.853c-10.779 10.779-10.779 26.947 0 37.726s26.947 10.779 37.726 0l153.6-156.295 336.842 406.905c10.779 10.779 26.947 13.474 37.726 2.695s13.474-26.947 2.695-37.726l-355.705-431.158c-2.695-5.389-10.779-8.084-18.863-8.084 0 0 0 0 0 0zM361.095 213.558c10.779 10.779 10.779 26.947 0 37.726l-175.158 177.853c-10.779 10.779-26.947 10.779-37.726 0s-10.779-26.947 0-37.726l175.158-177.853c5.389-5.389 13.474-8.084 18.863-8.084s13.474 2.695 18.863 8.084zM503.916 388.716l212.884 258.695c10.779 10.779 8.084 29.642-2.695 37.726-10.779 10.779-29.642 8.084-37.726-2.695l-212.884-258.695c-10.779-10.779-8.084-29.642 2.695-37.726 5.389-5.389 10.779-5.389 16.168-5.389 8.084-2.695 16.168 0 21.558 8.084z" />
<glyph unicode="&#xe94f;" glyph-name="download" d="M641.347 415.663c-10.779 10.779-26.947 10.779-37.726 0l-64.674-64.674v393.432c0 16.168-10.779 26.947-26.947 26.947s-26.947-10.779-26.947-26.947v-393.432l-64.674 64.674c-10.779 10.779-26.947 10.779-37.726 0s-10.779-26.947 0-37.726l110.484-110.484c2.695-2.695 5.389-5.389 8.084-5.389 2.695-2.695 8.084-2.695 10.779-2.695s8.084 0 10.779 2.695 5.389 2.695 8.084 5.389l110.484 110.484c10.779 10.779 10.779 26.947 0 37.726zM808.421 70.737h-592.842c-45.811 0-80.842 35.032-80.842 80.842v242.526c0 16.168 10.779 26.947 26.947 26.947s26.947-10.779 26.947-26.947v-242.526c0-16.168 10.779-26.947 26.947-26.947h592.842c16.168 0 26.947 10.779 26.947 26.947v242.526c0 16.168 10.779 26.947 26.947 26.947s26.947-10.779 26.947-26.947v-242.526c0-45.811-35.032-80.842-80.842-80.842z" />
<glyph unicode="&#xe950;" glyph-name="drag" d="M619.789 717.474c-29.642 0-53.895-24.253-53.895-53.895s24.253-53.895 53.895-53.895 53.895 24.253 53.895 53.895-24.253 53.895-53.895 53.895v0zM404.211 717.474c-29.642 0-53.895-24.253-53.895-53.895s24.253-53.895 53.895-53.895 53.895 24.253 53.895 53.895-24.253 53.895-53.895 53.895v0zM619.789 501.895c-29.642 0-53.895-24.253-53.895-53.895s24.253-53.895 53.895-53.895 53.895 24.253 53.895 53.895-24.253 53.895-53.895 53.895v0zM404.211 501.895c-29.642 0-53.895-24.253-53.895-53.895s24.253-53.895 53.895-53.895 53.895 24.253 53.895 53.895-24.253 53.895-53.895 53.895v0zM619.789 286.316c-29.642 0-53.895-24.253-53.895-53.895s24.253-53.895 53.895-53.895 53.895 24.253 53.895 53.895-24.253 53.895-53.895 53.895v0zM404.211 286.316c-29.642 0-53.895-24.253-53.895-53.895s24.253-53.895 53.895-53.895 53.895 24.253 53.895 53.895-24.253 53.895-53.895 53.895v0z" />
<glyph unicode="&#xe951;" glyph-name="drone" d="M646.737 671.663c16.168 0 26.947 10.779 29.642 24.253 0 43.116 35.032 75.453 78.147 75.453 45.811 0 80.842-35.032 80.842-80.842 0-43.116-32.337-78.147-75.453-80.842-16.168 0-26.947-13.474-24.253-29.642 0-13.474 13.474-24.253 26.947-24.253 0 0 0 0 2.695 0 70.063 5.389 126.653 64.674 126.653 134.737 0 75.453-59.284 134.737-134.737 134.737-70.063 0-129.347-53.895-134.737-126.653-2.695-13.474 8.084-26.947 24.253-26.947zM735.663 186.611c5.389-5.389 13.474-8.084 18.863-8.084s13.474 2.695 18.863 8.084c10.779 10.779 10.779 26.947 0 37.726l-134.737 134.737c5.389 10.779 8.084 21.558 8.084 35.032v107.789c0 13.474-2.695 24.253-8.084 35.032v0l134.737 134.737c10.779 10.779 10.779 26.947 0 37.726s-26.947 10.779-37.726 0l-134.737-134.737c-10.779 5.389-21.558 8.084-35.032 8.084h-107.789c-13.474 0-24.253-2.695-35.032-8.084v0l-134.737 134.737c-10.779 10.779-26.947 10.779-37.726 0s-10.779-26.947 0-37.726l134.737-134.737c-5.389-10.779-8.084-21.558-8.084-35.032v-107.789c0-13.474 2.695-24.253 8.084-35.032v0l-134.737-134.737c-10.779-10.779-10.779-26.947 0-37.726 5.389-5.389 10.779-8.084 18.863-8.084s13.474 2.695 18.863 8.084l134.737 134.737c10.779-5.389 21.558-8.084 35.032-8.084h107.789c13.474 0 24.253 2.695 35.032 8.084v0l134.737-134.737zM565.895 367.158h-107.789c-16.168 0-26.947 10.779-26.947 26.947v107.789c0 16.168 10.779 26.947 26.947 26.947h107.789c16.168 0 26.947-10.779 26.947-26.947v-107.789c0-16.168-10.779-26.947-26.947-26.947zM762.611 340.211c-16.168 0-26.947-10.779-29.642-24.253 0-16.168 10.779-26.947 24.253-29.642 43.116-2.695 75.453-37.726 75.453-80.842 0-45.811-35.032-80.842-80.842-80.842-43.116 0-78.147 32.337-80.842 75.453 0 16.168-13.474 26.947-29.642 24.253-16.168 0-26.947-13.474-24.253-29.642 5.389-70.063 64.674-126.653 134.737-126.653 75.453 0 134.737 59.284 134.737 134.737 2.695 72.758-51.2 132.042-123.958 137.432zM261.389 555.789v0c16.168 0 26.947 10.779 29.642 24.253 0 16.168-10.779 26.947-24.253 29.642-45.811 2.695-78.147 37.726-78.147 80.842 0 45.811 35.032 80.842 80.842 80.842 43.116 0 78.147-32.337 80.842-75.453 0-16.168 13.474-26.947 29.642-24.253 16.168 0 26.947 13.474 24.253 29.642-5.389 70.063-64.674 123.958-134.737 123.958-75.453 0-134.737-59.284-134.737-134.737 0-70.063 53.895-129.347 126.653-134.737zM377.263 224.337c-16.168 0-26.947-10.779-29.642-24.253-2.695-43.116-37.726-75.453-80.842-75.453-45.811 0-80.842 35.032-80.842 80.842 0 43.116 32.337 78.147 75.453 80.842 16.168 0 26.947 13.474 24.253 29.642 0 16.168-13.474 24.253-29.642 24.253-67.368-5.389-121.263-64.674-121.263-134.737 0-75.453 59.284-134.737 134.737-134.737 70.063 0 129.347 53.895 134.737 126.653 0 13.474-10.779 26.947-26.947 26.947zM512 636.632c8.084 0 13.474 2.695 18.863 8.084s8.084 10.779 8.084 18.863c0 2.695 0 8.084-2.695 10.779s-2.695 5.389-5.389 8.084c-2.695 0-2.695 2.695-2.695 2.695-2.695 0-2.695 2.695-5.389 2.695s-2.695 0-5.389 2.695c-8.084 2.695-18.863 0-24.253-8.084-2.695-2.695-5.389-5.389-5.389-8.084s-2.695-5.389-2.695-10.779c0-8.084 2.695-13.474 8.084-18.863s10.779-8.084 18.863-8.084z" />
<glyph unicode="&#xe952;" glyph-name="dropdown-list" d="M808.421 825.263h-592.842c-45.811 0-80.842-35.032-80.842-80.842v-323.368c0-45.811 35.032-80.842 80.842-80.842h592.842c45.811 0 80.842 35.032 80.842 80.842v323.368c0 45.811-35.032 80.842-80.842 80.842zM835.368 421.053c0-16.168-10.779-26.947-26.947-26.947h-592.842c-16.168 0-26.947 10.779-26.947 26.947v323.368c0 16.168 10.779 26.947 26.947 26.947h592.842c16.168 0 26.947-10.779 26.947-26.947v-323.368zM681.768 642.021l-61.979-61.979-61.979 61.979c-10.779 10.779-26.947 10.779-37.726 0s-10.779-26.947 0-37.726l80.842-80.842c5.389-5.389 13.474-8.084 18.863-8.084s13.474 2.695 18.863 8.084l80.842 80.842c10.779 10.779 10.779 26.947 0 37.726s-26.947 10.779-37.726 0zM808.421 259.368h-592.842c-16.168 0-26.947-10.779-26.947-26.947s10.779-26.947 26.947-26.947h592.842c16.168 0 26.947 10.779 26.947 26.947s-10.779 26.947-26.947 26.947zM808.421 124.632h-592.842c-16.168 0-26.947-10.779-26.947-26.947s10.779-26.947 26.947-26.947h592.842c16.168 0 26.947 10.779 26.947 26.947s-10.779 26.947-26.947 26.947z" />
<glyph unicode="&#xe953;" glyph-name="dropdown" d="M808.421 690.526h-592.842c-45.811 0-80.842-35.032-80.842-80.842v-323.368c0-45.811 35.032-80.842 80.842-80.842h592.842c45.811 0 80.842 35.032 80.842 80.842v323.368c0 45.811-35.032 80.842-80.842 80.842zM835.368 286.316c0-16.168-10.779-26.947-26.947-26.947h-592.842c-16.168 0-26.947 10.779-26.947 26.947v323.368c0 16.168 10.779 26.947 26.947 26.947h592.842c16.168 0 26.947-10.779 26.947-26.947v-323.368zM681.768 507.284l-61.979-61.979-61.979 61.979c-10.779 10.779-26.947 10.779-37.726 0s-10.779-26.947 0-37.726l80.842-80.842c5.389-5.389 13.474-8.084 18.863-8.084s13.474 2.695 18.863 8.084l80.842 80.842c10.779 10.779 10.779 26.947 0 37.726s-26.947 10.779-37.726 0z" />
<glyph unicode="&#xe954;" glyph-name="edit" d="M161.684 70.737c-8.084 0-13.474 2.695-18.863 8.084s-8.084 13.474-8.084 21.558l18.863 207.495c0 5.389 2.695 13.474 8.084 16.168l468.884 468.884c21.558 21.558 48.505 32.337 75.453 32.337 29.642 0 56.589-10.779 75.453-32.337l75.453-75.453c18.863-18.863 32.337-45.811 32.337-75.453s-10.779-56.589-32.337-75.453l-468.884-468.884c-5.389-5.389-10.779-8.084-16.168-8.084l-210.189-18.863c2.695 0 0 0 0 0zM207.495 291.705l-16.168-164.379 164.379 16.168 463.495 463.495c10.779 10.779 16.168 24.253 16.168 37.726s-5.389 26.947-16.168 37.726l-75.453 75.453c-18.863 18.863-53.895 18.863-75.453 0l-460.8-466.189z" />
<glyph unicode="&#xe955;" glyph-name="elements-communication" d="M762.611 321.347h-501.221v250.611h377.263v-123.958h126.653v250.611h-630.568v-503.916h754.526l-126.653 126.653z" />
<glyph unicode="&#xe956;" glyph-name="elements-composer" d="M261.389 763.284v-627.874h250.611v123.958h-126.653v377.263h250.611v-250.611h126.653v377.263h-501.221zM762.611 132.716v126.653l-126.653-126.653h126.653z" />
<glyph unicode="&#xe957;" glyph-name="elements-creator" d="M261.389 259.368v250.611h250.611v126.653h-377.263v-503.916h250.611l126.653 126.653h-250.611zM638.653 763.284l-126.653-126.653h250.611v-250.611h-250.611v-126.653h377.263v503.916h-250.611z" />
<glyph unicode="&#xe958;" glyph-name="elements-designer" d="M638.653 698.611v-126.653h126.653v253.305l-126.653-126.653zM512 70.737c-140.126 0-250.611 113.179-250.611 250.611s113.179 250.611 250.611 250.611 250.611-113.179 250.611-250.611-110.484-250.611-250.611-250.611zM512 448c-70.063 0-126.653-56.589-126.653-126.653s56.589-126.653 126.653-126.653 126.653 56.589 126.653 126.653-56.589 126.653-126.653 126.653z" />
<glyph unicode="&#xe959;" glyph-name="elements-edge-logic" d="M261.389 259.368v0 377.263h126.653v126.653h-253.305v-503.916l126.653-126.653h126.653v126.653h-126.653zM385.347 509.979h250.611v-126.653h-250.611v126.653zM889.263 763.284h-250.611v-126.653h126.653v-377.263h-126.653v-126.653h126.653l123.958 126.653v503.916z" />
<glyph unicode="&#xe95a;" glyph-name="elements-edge-nodes" d="M417.684 509.979h250.611v-126.653h-250.611v126.653zM670.989 636.632v-126.653c35.032 0 61.979-29.642 61.979-61.979s-29.642-61.979-61.979-61.979v-126.653c105.095 0 188.632 83.537 188.632 188.632s-86.232 188.632-188.632 188.632zM544.337 636.632v126.653h-377.263v-503.916l126.653-126.653h253.305v126.653h-253.305v377.263h250.611z" />
<glyph unicode="&#xe95b;" glyph-name="elements-edge-os" d="M385.347 259.368v377.263h250.611v126.653h-377.263v-503.916l126.653-126.653h253.305v126.653h-253.305zM638.653 509.979v0h-126.653v-126.653h253.305v126.653h-126.653z" />
<glyph unicode="&#xe95c;" glyph-name="elements-explorer" d="M512 259.368l-377.263 123.958v-123.958l377.263-123.958 377.263 123.958v123.958l-377.263-123.958zM638.653 720.168l-126.653 40.421-126.653-40.421 126.653-43.116 126.653 43.116zM638.653 636.632v-83.537l-126.653-43.116-126.653 43.116v83.537l-126.653-43.116v-126.653l250.611-83.537 250.611 83.537v123.958l-121.263 45.811z" />
<glyph unicode="&#xe95d;" glyph-name="elements-govern" d="M512 636.632l377.263-126.653v126.653l-377.263 126.653-377.263-126.653v-126.653l377.263 126.653zM450.021 509.979h126.653v-377.263h-126.653v377.263zM134.737 386.021l61.979-21.558v-231.747h126.653v315.284l-188.632-61.979zM700.632 448v-315.284h126.653v231.747l61.979 21.558-188.632 61.979z" />
<glyph unicode="&#xe95e;" glyph-name="elements-manager" d="M512 636.632l126.653 126.653h-503.916v-126.653h377.263zM638.653 386.021l126.653 126.653h-377.263l-126.653-126.653h377.263zM512 259.368l-126.653-126.653h503.916v126.653h-377.263z" />
<glyph unicode="&#xe95f;" glyph-name="elements-media" d="M323.368 825.263c-105.095 0-188.632-83.537-188.632-188.632s83.537-188.632 188.632-188.632 188.632 83.537 188.632 188.632-83.537 188.632-188.632 188.632zM323.368 574.653c-35.032 0-61.979 29.642-61.979 61.979s26.947 61.979 61.979 61.979 61.979-26.947 61.979-61.979-26.947-61.979-61.979-61.979zM439.242 70.737l199.411 199.411v177.853l-377.263-377.263h177.853zM889.263 375.242l-250.611 250.611v-177.853l250.611-250.611v177.853z" />
<glyph unicode="&#xe960;" glyph-name="elements-modeller" d="M385.347 70.737l126.653 126.653v126.653h-126.653c0-2.695 0-253.305 0-253.305zM261.389 448l-126.653-126.653h250.611v126.653h-123.958zM638.653 825.263c-140.126 0-250.611-113.179-250.611-250.611s113.179-250.611 250.611-250.611 250.611 113.179 250.611 250.611-113.179 250.611-250.611 250.611zM638.653 448c-70.063 0-126.653 56.589-126.653 126.653s56.589 126.653 126.653 126.653 126.653-56.589 126.653-126.653-59.284-126.653-126.653-126.653z" />
<glyph unicode="&#xe961;" glyph-name="elements-persons" d="M512 448c105.095 0 188.632 83.537 188.632 188.632s-83.537 188.632-188.632 188.632-188.632-83.537-188.632-188.632 83.537-188.632 188.632-188.632zM512 698.611c35.032 0 61.979-26.947 61.979-61.979s-29.642-61.979-61.979-61.979-61.979 29.642-61.979 61.979 26.947 61.979 61.979 61.979zM762.611 197.389h-501.221v126.653h126.653v123.958h-253.305v-377.263h754.526l-126.653 126.653z" />
<glyph unicode="&#xe962;" glyph-name="elements-publisher" d="M385.347 197.389v126.653h-123.958v-253.305l123.958 126.653zM512 825.263c140.126 0 250.611-113.179 250.611-250.611s-113.179-250.611-250.611-250.611-250.611 113.179-250.611 250.611 110.484 250.611 250.611 250.611zM512 448c70.063 0 126.653 56.589 126.653 126.653s-56.589 123.958-126.653 123.958-126.653-56.589-126.653-126.653 56.589-123.958 126.653-123.958z" />
<glyph unicode="&#xe963;" glyph-name="elements-semantic" d="M638.653 321.347c0-70.063-56.589-126.653-126.653-126.653s-126.653 56.589-126.653 126.653h-123.958c0-140.126 113.179-250.611 250.611-250.611s250.611 113.179 250.611 250.611-113.179 250.611-250.611 250.611v-123.958c70.063 0 126.653-56.589 126.653-126.653zM385.347 574.653c0 70.063 56.589 126.653 126.653 126.653s126.653-56.589 126.653-126.653h126.653c-2.695 137.432-113.179 250.611-253.305 250.611s-250.611-113.179-250.611-250.611 113.179-250.611 250.611-250.611v123.958c-70.063 0-126.653 56.589-126.653 126.653z" />
<glyph unicode="&#xe964;" glyph-name="elements-settle" d="M765.305 763.284h-253.305v-126.653h126.653v-377.263l126.653 126.653v377.263zM385.347 259.368v0 0 377.263l-126.653-126.653v-377.263h253.305v126.653h-126.653z" />
<glyph unicode="&#xe965;" glyph-name="elements-tag" d="M261.389 259.368l126.653-126.653h501.221v126.653h-627.874zM762.611 636.632v0l-126.653 126.653h-501.221v-250.611l126.653-126.653h503.916v250.611h-2.695zM261.389 509.979v126.653l377.263-2.695v-123.958h-377.263z" />
<glyph unicode="&#xe966;" glyph-name="elements" d="M638.653 448h-126.653v-126.653l126.653 126.653zM512 70.737c-207.495 0-377.263 169.768-377.263 377.263s169.768 377.263 377.263 377.263c207.495 0 377.263-169.768 377.263-377.263h-126.653c0 137.432-113.179 250.611-250.611 250.611s-250.611-113.179-250.611-250.611c0-137.432 113.179-250.611 250.611-250.611v-126.653z" />
</font>
</defs>
</svg>
